<?xml version="1.0" encoding="utf-8"?>
<!-- Generator: Adobe Illustrator 21.0.2, SVG Export Plug-In . SVG Version: 6.00 Build 0)  -->
<svg version="1.1" id="Шар_1" xmlns="http://www.w3.org/2000/svg" xmlns:xlink="http://www.w3.org/1999/xlink" x="0px" y="0px"
	 width="273px" height="219px" viewBox="0 0 273 219" style="enable-background:new 0 0 273 219;" xml:space="preserve">
<style type="text/css">
	.st0{enable-background:new    ;}
	.st1{fill:#3D3D3D;}
</style>
<g id="logo" transform="translate(3496 -2580)">
	<g class="st0">
		<path class="st1" d="M-3492.9,2763.8h13.7v2.7h-10.7v7.6c0.4-0.1,0.9-0.1,1.5-0.2c0.6-0.1,1.2-0.1,1.7-0.1c1.2,0,2.4,0.1,3.5,0.3
			c1.1,0.2,2.1,0.6,2.9,1.2c0.8,0.6,1.5,1.3,2,2.3c0.5,0.9,0.7,2.1,0.7,3.6s-0.3,2.7-0.8,3.7c-0.5,1-1.2,1.9-2,2.6
			c-0.8,0.7-1.8,1.2-2.9,1.5c-1.1,0.3-2.3,0.5-3.5,0.5c-0.4,0-0.9,0-1.4,0c-0.5,0-1.1,0-1.6-0.1c-0.6,0-1.1-0.1-1.7-0.2
			s-1-0.1-1.5-0.3V2763.8z M-3486.4,2786.7c0.8,0,1.5-0.1,2.2-0.3c0.7-0.2,1.3-0.5,1.8-1s0.9-1,1.2-1.6c0.3-0.6,0.5-1.4,0.5-2.3
			c0-1.1-0.2-2-0.5-2.7c-0.3-0.7-0.8-1.2-1.4-1.6c-0.6-0.4-1.2-0.6-2-0.8s-1.5-0.2-2.4-0.2c-0.2,0-0.5,0-0.8,0c-0.3,0-0.6,0-0.9,0.1
			c-0.3,0-0.6,0.1-0.8,0.1c-0.2,0-0.4,0.1-0.5,0.1v9.9c0.2,0,0.4,0.1,0.7,0.1c0.3,0,0.6,0,0.9,0.1c0.3,0,0.7,0,1,0
			C-3487.1,2786.7-3486.7,2786.7-3486.4,2786.7z"/>
		<path class="st1" d="M-3474.4,2780c0-3,0.7-5.4,2-7s3.3-2.4,5.9-2.4c1.3,0,2.5,0.2,3.5,0.7c1,0.4,1.8,1.1,2.5,1.9
			c0.6,0.8,1.1,1.8,1.4,3c0.3,1.2,0.5,2.5,0.5,3.9c0,3-0.7,5.4-2,7c-1.4,1.6-3.3,2.4-5.9,2.4c-1.3,0-2.5-0.2-3.5-0.7
			c-1-0.4-1.8-1.1-2.5-1.9c-0.6-0.8-1.1-1.8-1.4-3C-3474.3,2782.7-3474.4,2781.4-3474.4,2780z M-3471.4,2780c0,0.9,0.1,1.8,0.3,2.6
			c0.2,0.8,0.5,1.6,0.8,2.2c0.4,0.6,0.9,1.1,1.5,1.5s1.4,0.6,2.3,0.6c3.3,0,4.9-2.3,4.9-6.9c0-0.9-0.1-1.8-0.3-2.7
			c-0.2-0.8-0.5-1.6-0.8-2.2c-0.4-0.6-0.9-1.1-1.5-1.5c-0.6-0.4-1.4-0.6-2.3-0.6C-3469.8,2773.1-3471.4,2775.4-3471.4,2780z"/>
		<path class="st1" d="M-3454.1,2771h2l0.5,2.2h0.1c0.6-0.8,1.3-1.5,2.1-1.9c0.9-0.4,1.9-0.7,3-0.7c2.4,0,4.2,0.7,5.4,2.1
			c1.2,1.4,1.8,3.7,1.8,6.9c0,1.5-0.2,2.9-0.6,4.1c-0.4,1.2-1,2.2-1.7,3.1c-0.7,0.8-1.6,1.5-2.6,1.9c-1,0.5-2.2,0.7-3.4,0.7
			c-0.9,0-1.6-0.1-2.1-0.2c-0.5-0.1-1.1-0.3-1.7-0.6v7.5h-2.9V2771z M-3446.9,2773.1c-1.2,0-2.2,0.3-2.9,1c-0.7,0.6-1.2,1.6-1.5,2.9
			v8.9c0.4,0.3,0.9,0.6,1.5,0.8c0.6,0.2,1.3,0.3,2.2,0.3c1.7,0,3-0.6,3.9-1.9c1-1.2,1.5-3.1,1.5-5.5c0-1-0.1-1.9-0.3-2.7
			c-0.2-0.8-0.4-1.5-0.8-2.1c-0.4-0.6-0.9-1-1.4-1.3C-3445.3,2773.2-3446,2773.1-3446.9,2773.1z"/>
		<path class="st1" d="M-3423.7,2773.5h-5.7v15.5h-2.9v-15.5h-5.7v-2.5h14.2V2773.5z"/>
		<path class="st1" d="M-3422.5,2780c0-3,0.7-5.4,2-7s3.3-2.4,5.9-2.4c1.3,0,2.5,0.2,3.5,0.7c1,0.4,1.8,1.1,2.5,1.9
			c0.6,0.8,1.1,1.8,1.4,3c0.3,1.2,0.5,2.5,0.5,3.9c0,3-0.7,5.4-2,7c-1.4,1.6-3.3,2.4-5.9,2.4c-1.3,0-2.5-0.2-3.5-0.7
			c-1-0.4-1.8-1.1-2.5-1.9c-0.6-0.8-1.1-1.8-1.4-3C-3422.3,2782.7-3422.5,2781.4-3422.5,2780z M-3419.5,2780c0,0.9,0.1,1.8,0.3,2.6
			c0.2,0.8,0.5,1.6,0.8,2.2c0.4,0.6,0.9,1.1,1.5,1.5s1.4,0.6,2.3,0.6c3.3,0,4.9-2.3,4.9-6.9c0-0.9-0.1-1.8-0.3-2.7
			c-0.2-0.8-0.5-1.6-0.8-2.2c-0.4-0.6-0.9-1.1-1.5-1.5c-0.6-0.4-1.4-0.6-2.3-0.6C-3417.9,2773.1-3419.5,2775.4-3419.5,2780z"/>
		<path class="st1" d="M-3402.2,2771c0.8,0,1.7-0.1,2.6-0.2c0.9-0.1,2.1-0.1,3.4-0.1c2.4,0,4.1,0.4,5.1,1.1c1,0.7,1.5,1.8,1.5,3.3
			c0,0.8-0.2,1.7-0.7,2.5c-0.5,0.8-1.3,1.4-2.4,1.8v0.1c1.4,0.3,2.4,0.8,3,1.5s0.9,1.7,0.9,2.9c0,1.9-0.7,3.2-2,4.1
			c-1.3,0.8-3.4,1.3-6,1.3c-1,0-1.9,0-2.8-0.1c-0.9-0.1-1.7-0.1-2.6-0.2V2771z M-3395.8,2778.6c0.4,0,0.9-0.1,1.3-0.2
			c0.4-0.1,0.8-0.3,1.1-0.6c0.3-0.3,0.6-0.5,0.8-0.9c0.2-0.3,0.3-0.7,0.3-1.1c0-1-0.3-1.6-0.9-2s-1.6-0.6-3-0.6c-0.8,0-1.4,0-1.8,0
			c-0.4,0-0.9,0-1.3,0.1v5.2H-3395.8z M-3399.3,2786.6c0.5,0,0.9,0.1,1.4,0.1c0.4,0,1,0,1.6,0c1.6,0,2.8-0.2,3.6-0.7
			c0.8-0.5,1.2-1.2,1.2-2.3c0-0.9-0.3-1.6-1-2.1c-0.7-0.5-1.8-0.8-3.5-0.8h-3.2V2786.6z"/>
		<path class="st1" d="M-3385.2,2780c0-3,0.7-5.4,2-7s3.3-2.4,5.9-2.4c1.3,0,2.5,0.2,3.5,0.7c1,0.4,1.8,1.1,2.5,1.9
			c0.6,0.8,1.1,1.8,1.4,3c0.3,1.2,0.5,2.5,0.5,3.9c0,3-0.7,5.4-2,7c-1.4,1.6-3.3,2.4-5.9,2.4c-1.3,0-2.5-0.2-3.5-0.7
			c-1-0.4-1.8-1.1-2.5-1.9c-0.6-0.8-1.1-1.8-1.4-3C-3385.1,2782.7-3385.2,2781.4-3385.2,2780z M-3382.2,2780c0,0.9,0.1,1.8,0.3,2.6
			c0.2,0.8,0.5,1.6,0.8,2.2c0.4,0.6,0.9,1.1,1.5,1.5s1.4,0.6,2.3,0.6c3.3,0,4.9-2.3,4.9-6.9c0-0.9-0.1-1.8-0.3-2.7
			c-0.2-0.8-0.5-1.6-0.8-2.2c-0.4-0.6-0.9-1.1-1.5-1.5c-0.6-0.4-1.4-0.6-2.3-0.6C-3380.6,2773.1-3382.2,2775.4-3382.2,2780z"/>
		<path class="st1" d="M-3353.7,2778.3l0.1-2.2h-0.1l-1.5,2.3l-8.1,10.6h-1.7v-18h2.9v11l-0.1,2.1h0.1l1.4-2.2l8.1-10.9h1.7v18h-2.9
			V2778.3z M-3360.8,2763.7c0.2,1.1,0.7,1.9,1.2,2.3c0.6,0.4,1.3,0.6,2,0.6c0.8,0,1.5-0.2,2.1-0.7c0.6-0.5,1-1.2,1.2-2.2l2.2,0.7
			c-0.2,1.4-0.8,2.5-1.9,3.2c-1,0.7-2.2,1.1-3.7,1.1c-0.6,0-1.3-0.1-1.9-0.3c-0.6-0.2-1.2-0.4-1.7-0.8c-0.5-0.3-0.9-0.8-1.3-1.3
			c-0.4-0.5-0.6-1.2-0.7-1.9L-3360.8,2763.7z"/>
		<path class="st1" d="M-3329.8,2781l-5.3,8h-3.3l5.7-8.2l1.2-1.1l-1.8-1.4l-4.7-7.3h3.1l5,7.8h1.9v-7.8h2.8v8.1l1.7-0.5l5-7.6h3
			l-4.9,7.3l-1.4,1.2l1.8,1.4l5.3,8.1h-3.4l-5.3-8.1h-1.9v8.1h-2.8v-8.5L-3329.8,2781z"/>
		<path class="st1" d="M-3306.6,2782.7l1,3.5h0.2l0.8-3.5l3.5-11.6h2.9l-5.3,16.2c-0.4,1.2-0.8,2.3-1.2,3.4c-0.4,1.1-0.8,2.1-1.3,3
			c-0.5,0.9-1,1.6-1.6,2.1c-0.6,0.5-1.3,0.8-2.1,0.8c-0.9,0-1.6-0.1-2.1-0.4l0.5-2.5c0.3,0.1,0.6,0.2,0.9,0.2c0.7,0,1.3-0.4,1.9-1.1
			c0.6-0.7,1.1-1.9,1.5-3.7l-7.2-18h3.3L-3306.6,2782.7z"/>
		<path class="st1" d="M-3295.2,2771h2l0.5,2.2h0.1c0.6-0.8,1.3-1.5,2.1-1.9c0.9-0.4,1.9-0.7,3-0.7c2.4,0,4.2,0.7,5.4,2.1
			s1.8,3.7,1.8,6.9c0,1.5-0.2,2.9-0.6,4.1c-0.4,1.2-1,2.2-1.7,3.1c-0.7,0.8-1.6,1.5-2.6,1.9c-1,0.5-2.2,0.7-3.4,0.7
			c-0.9,0-1.6-0.1-2.1-0.2c-0.5-0.1-1.1-0.3-1.7-0.6v7.5h-2.9V2771z M-3287.9,2773.1c-1.2,0-2.2,0.3-2.9,1s-1.2,1.6-1.5,2.9v8.9
			c0.4,0.3,0.9,0.6,1.5,0.8c0.6,0.2,1.3,0.3,2.2,0.3c1.7,0,3-0.6,3.9-1.9c1-1.2,1.5-3.1,1.5-5.5c0-1-0.1-1.9-0.3-2.7
			c-0.2-0.8-0.4-1.5-0.8-2.1c-0.4-0.6-0.9-1-1.4-1.3C-3286.3,2773.2-3287,2773.1-3287.9,2773.1z"/>
		<path class="st1" d="M-3264.7,2781h-8.1v8h-2.9v-18h2.9v7.5h8.1v-7.5h2.9v18h-2.9V2781z"/>
		<path class="st1" d="M-3256.5,2772.3c0.9-0.6,2-1,3.2-1.2c1.2-0.3,2.5-0.4,3.8-0.4c1.2,0,2.3,0.2,3,0.5c0.8,0.3,1.3,0.8,1.7,1.3
			c0.4,0.5,0.7,1.1,0.8,1.8c0.1,0.6,0.2,1.3,0.2,1.9c0,1.4,0,2.8-0.1,4.2c-0.1,1.4-0.1,2.7-0.1,3.9c0,0.9,0,1.7,0.1,2.5
			c0.1,0.8,0.2,1.5,0.4,2.2h-2.1l-0.8-2.5h-0.2c-0.2,0.3-0.5,0.7-0.8,1c-0.3,0.3-0.7,0.6-1.2,0.9s-1,0.5-1.6,0.6
			c-0.6,0.2-1.3,0.3-2.1,0.3c-0.8,0-1.5-0.1-2.1-0.4c-0.7-0.2-1.2-0.6-1.7-1c-0.5-0.4-0.9-1-1.1-1.6c-0.3-0.6-0.4-1.3-0.4-2.1
			c0-1.1,0.2-1.9,0.6-2.6s1-1.3,1.8-1.7c0.8-0.4,1.7-0.7,2.8-0.9c1.1-0.2,2.3-0.3,3.6-0.3c0.3,0,0.7,0,1,0c0.3,0,0.7,0,1,0.1
			c0.1-0.7,0.1-1.4,0.1-1.9c0-1.3-0.3-2.2-0.8-2.8c-0.5-0.5-1.5-0.8-2.9-0.8c-0.4,0-0.8,0-1.3,0.1c-0.5,0.1-0.9,0.1-1.4,0.3
			c-0.5,0.1-1,0.2-1.4,0.4c-0.4,0.2-0.8,0.3-1.2,0.5L-3256.5,2772.3z M-3251.4,2786.8c0.7,0,1.3-0.1,1.8-0.3c0.5-0.2,1-0.4,1.4-0.7
			c0.4-0.3,0.7-0.6,1-0.9s0.4-0.7,0.6-1v-3c-0.3,0-0.7,0-1-0.1c-0.3,0-0.7,0-1,0c-0.7,0-1.5,0-2.2,0.1c-0.7,0.1-1.3,0.2-1.9,0.5
			c-0.5,0.2-1,0.5-1.3,0.9c-0.3,0.4-0.5,0.9-0.5,1.5c0,0.8,0.3,1.5,0.9,2.1C-3253.1,2786.5-3252.4,2786.8-3251.4,2786.8z"/>
		<path class="st1" d="M-3228.7,2773.5h-5.2c-0.1,1-0.1,2.1-0.2,3.3s-0.2,2.3-0.3,3.5c-0.1,1.2-0.3,2.3-0.6,3.3
			c-0.2,1.1-0.5,2-0.9,2.8c-0.4,0.8-0.8,1.5-1.4,2c-0.5,0.5-1.2,0.7-1.9,0.7c-0.5,0-0.9,0-1.2-0.1c-0.3,0-0.6-0.1-0.9-0.3l0.4-2.4
			c0.3,0.1,0.6,0.1,0.9,0.1c0.5,0,0.9-0.2,1.3-0.6c0.4-0.4,0.7-1.2,1-2.3c0.3-1.1,0.5-2.7,0.7-4.7c0.2-2,0.3-4.6,0.4-7.9h10.7v18
			h-2.9V2773.5z"/>
	</g>
	<g id="Group_390" transform="translate(214 187)">
		<path id="Path_1" class="st1" d="M-3545.7,2494.8h-11.5c-1.7,0-3.1,1.3-3.1,3c0,1.7,1.3,3.1,3,3.1c0,0,0.1,0,0.1,0h11.5
			c1.7,0,3.1-1.3,3.1-3s-1.3-3.1-3-3.1C-3545.7,2494.8-3545.7,2494.8-3545.7,2494.8z"/>
		<path id="Path_2" class="st1" d="M-3629.8,2517.2c-5.4,0-9.7,4.4-9.7,9.8c0,5.4,4.4,9.7,9.8,9.7c5.3,0,9.7-4.4,9.7-9.7
			C-3620,2521.6-3624.4,2517.2-3629.8,2517.2z M-3629.8,2530.6c-2,0-3.7-1.7-3.6-3.7c0-2,1.7-3.7,3.7-3.6c2,0,3.6,1.6,3.6,3.7
			C-3626.1,2529-3627.8,2530.6-3629.8,2530.6L-3629.8,2530.6z"/>
		<path id="Path_3" class="st1" d="M-3499.4,2517.2c-5.4,0-9.7,4.4-9.7,9.8c0,5.4,4.4,9.7,9.8,9.7c5.3,0,9.7-4.4,9.7-9.7
			C-3489.7,2521.6-3494.1,2517.2-3499.4,2517.2z M-3499.4,2530.6c-2,0-3.7-1.7-3.6-3.7s1.7-3.7,3.7-3.6c2,0,3.6,1.6,3.6,3.7
			C-3495.8,2529-3497.4,2530.6-3499.4,2530.6L-3499.4,2530.6z"/>
		<path id="Path_4" class="st1" d="M-3470.2,2508.4c-1.6-12.3-10.6-22.2-22.7-24.9l-12.1-11.5c-7.5-7.2-17.6-11.2-28-11.2h-23.5
			c-13.1,0-26,3-37.7,8.8c-1.5,0.7-2.1,2.5-1.4,4c0,0,0,0,0,0c0.8,1.5,2.6,2.1,4.1,1.4c10.9-5.4,22.8-8.2,35-8.2h15.5l2.5,18
			l-75.3,2.9l11.4-6.7c1.4-0.8,1.9-2.7,1.1-4.1c0,0,0,0,0,0c-0.9-1.4-2.7-1.9-4.2-1.1l-21.2,12.4l-10.7,0.5
			c-3.3,0.1-6.6,0.9-9.7,2.1c-0.1,0-0.2,0.1-0.2,0.1c-6.2,2.5-11.3,7.1-14.6,13c-0.7,1.2-1.3,2.5-1.8,3.8c-1,2.6-1.7,5.4-2.6,8.1
			l-2.1,6.7l-0.2,0.7c-0.9,2.7-0.4,5.7,1.4,7.9c1.7,2.3,4.4,3.6,7.2,3.6h11.7c4.4,10.2,16.3,15,26.6,10.5c4.7-2,8.5-5.8,10.5-10.5
			h93.2c4.4,10.2,16.3,15,26.6,10.5c4.7-2,8.5-5.8,10.5-10.5h7.8c1.7,0,3-1.4,3-3c0,0,0,0,0,0V2512
			C-3470,2510.8-3470.1,2509.6-3470.2,2508.4z M-3484.6,2494.1l0.1,0.1c3.9,3.2,6.6,7.6,7.8,12.6c-4.6-0.8-7.9-4.7-7.9-9.4
			L-3484.6,2494.1z M-3533,2466.8L-3533,2466.8c8.9,0,17.4,3.4,23.8,9.5l7.5,7.2l-30.7,1.2l-2.4-17.8H-3533z M-3657.5,2508.7
			c0.1-0.3,0.3-0.6,0.4-0.9c0,0,0,0,0,0c1.8-3.7,4.6-6.8,8-9.1v0.8c0,4.9-3.7,9-8.6,9.5C-3657.6,2508.9-3657.6,2508.8-3657.5,2508.7
			z M-3618.3,2535.1c-4.5,6.3-13.4,7.8-19.7,3.2c-2.7-1.9-4.6-4.7-5.4-7.8c-2-7.5,2.5-15.2,10-17.2c7.5-2,15.2,2.5,17.2,10
			C-3615.1,2527.3-3615.9,2531.7-3618.3,2535.1L-3618.3,2535.1z M-3609.7,2528.8L-3609.7,2528.8c0.1-0.6,0.1-1.2,0.1-1.8
			c-0.1-11.1-9.2-20.1-20.3-20c-11,0.1-20,9-20,20c0,0,0,0,0,0c0,0.6,0,1.2,0.1,1.8h-10.1c-0.9,0-1.8-0.4-2.3-1.2
			c-0.5-0.7-0.7-1.7-0.4-2.6l3.1-10c0.3,0,0.7,0,1,0c8.6,0,15.6-6.9,15.7-15.6v-3.5c0-0.1,0-0.2,0-0.2c1.9-0.6,3.8-0.9,5.8-1
			l11.5-0.5l17.8-0.7c-1.1,7.2-2.7,22.9,2.6,35.1L-3609.7,2528.8L-3609.7,2528.8z M-3560.2,2528.8h-38.3
			c-6.5-11.5-4.3-29.1-3.2-35.4l63.8-2.5c0.4,6.3,0.4,21.8-7.3,30.9C-3548.9,2526.1-3553.8,2528.4-3560.2,2528.8L-3560.2,2528.8z
			 M-3485.4,2527.9c-0.6,7.8-7.3,13.6-15.1,13c-7.3-0.5-13-6.6-13.1-14c0-7.8,6.3-14.1,14.1-14.1c7.8,0,14.1,6.3,14.1,14.1
			C-3485.4,2527.2-3485.4,2527.5-3485.4,2527.9L-3485.4,2527.9z M-3476.1,2528.8h-3.2c0.9-11.2-7.5-21-18.7-21.8c-0.1,0-0.3,0-0.4,0
			c-0.3,0-0.7,0-1,0c-11.1,0-20.1,9-20.2,20.1c0,0.6,0,1.2,0.1,1.8h-24.1c1.1-0.9,2.2-2,3.1-3.1c9.1-10.7,9.2-27.8,8.7-35l37.1-1.4
			c1.5,0.3,2.9,0.8,4.3,1.3c-0.2,1.1-0.4,2.2-0.4,3.3v3.5c0,8.2,6.4,15,14.6,15.5L-3476.1,2528.8L-3476.1,2528.8z"/>
		<path id="Path_5" class="st1" d="M-3553.2,2407.9c-1.2-1.2-3.1-1.2-4.3,0l-21.9,21.8l-2.7-6.8c-0.6-1.6-2.4-2.3-3.9-1.7
			c-1.6,0.6-2.3,2.3-1.8,3.9c0,0,0,0,0,0l4.3,11.2c0.6,1.6,2.4,2.3,4,1.7c0.4-0.2,0.7-0.4,1-0.7l25.2-25.1
			C-3552,2411-3552,2409.1-3553.2,2407.9C-3553.2,2407.9-3553.2,2407.9-3553.2,2407.9z"/>
		<path id="Path_6" class="st1" d="M-3570.1,2393c-16.3,0.1-29.5,13.4-29.4,29.7c0.1,16.3,13.4,29.5,29.7,29.4
			c16.2-0.1,29.4-13.3,29.4-29.5C-3540.5,2406.2-3553.8,2393-3570.1,2393z M-3570.1,2446c-13-0.1-23.4-10.6-23.3-23.6
			c0.1-13,10.6-23.4,23.6-23.3c12.9,0.1,23.3,10.6,23.3,23.5C-3546.6,2435.5-3557.2,2446-3570.1,2446z"/>
	</g>
</g>
</svg>
