<svg xmlns="http://www.w3.org/2000/svg" viewBox="0 0 512 512">
  <path fill="#069495" d="M307 14.9C298.1 5.4 285.6 0 272.7 0h-33.9c-12.9 0-25.4 5.4-34.3 14.9-8.9 9.4-13.4 22.3-12.6 35.2l1.5 23.1 3.5 53.9c1.3 20.2 12.7 38.1 30.4 47.8a58.6 58.6 0 0 0 28.4 7.3c9.8 0 19.5-2.4 28.4-7.3 17.7-9.8 29.1-27.6 30.4-47.8l4-61.6 1-15.4c.9-13-3.7-25.8-12.5-35.2zm-93.9 46.5l-.8-12.7c-.5-7.4 2.1-14.5 7.1-19.9 5.1-5.4 12-8.4 19.4-8.4h29.8L262 38.1c-1.7 2.6-13.6 18.8-48.9 23.3zm81.1 64.3c-.9 13.2-8.3 24.9-19.9 31.3-11.6 6.4-25.5 6.4-37.2 0-11.6-6.4-19-18.1-19.9-31.3l-2.9-44c27.8-3.3 44.8-13.1 54.5-21.5 2.3 1.9 5 3.7 8.2 5.3 4.5 2.3 11.3 4.6 20.6 7l-3.4 53.2zm5-77l-.2 3.2c-7.4-2.1-11-3.6-12.6-4.4-2.8-1.4-4.2-2.6-5-3.3l7-18.6c1.3 1 2.5 2 3.6 3.2 5.2 5.4 7.7 12.5 7.2 19.9zM405.6 292.7l-5.6-31c-6.6-36.7-35.7-65.9-72.3-72.8-5.5-1-11.2-1.6-16.8-1.6H288c-2.7 0-5.3 1.1-7.2 3l-25.2 25.2-25.8-25.3c-1.9-1.9-4.5-2.9-7.1-2.9h-22.2c-5.6 0-11.3.5-16.8 1.6-36.6 6.9-65.6 36.2-72.3 72.8l-5.6 31c-.5 3 .3 6 2.2 8.4 1.9 2.3 4.8 3.7 7.8 3.7h279.7c3 0 5.9-1.3 7.8-3.7 2.1-2.4 2.9-5.4 2.3-8.4zm-187-85l30 29.5c4 3.9 10.4 3.9 14.4-.1l29.3-29.4h10.3l-46.9 46.9-46.9-46.9h9.8zm-90.5 76.6l3.4-19c4.8-26.7 25-48.3 50.9-55.2l66.1 66.1c2 2 4.6 3 7.2 3 2.6 0 5.2-1 7.2-3l66.1-66.1c25.9 7 46 28.6 50.9 55.2l3.4 19H128.1zM297.2 349.6H291c-5.6 0-10.2 4.6-10.2 10.2S285.3 370 291 370h6.2c5.6 0 10.2-4.6 10.2-10.2s-4.6-10.2-10.2-10.2zM265.9 437V333.9c0-5.6-4.6-10.2-10.2-10.2s-10.2 4.6-10.2 10.2v15.7H93.8c-25.8 0-46.7 21-46.7 46.7V437c-16.1 4.5-28 19.3-28 36.8 0 21.1 17.1 38.2 38.2 38.2s38.2-17.1 38.2-38.2c0-17.5-11.9-32.3-28-36.8v-40.7c0-14.5 11.8-26.3 26.3-26.3h151.7v67c-16.1 4.5-28 19.3-28 36.8 0 21.1 17.1 38.2 38.2 38.2s38.2-17.1 38.2-38.2c0-17.5-11.8-32.3-28-36.8zM75 473.8c0 9.8-8 17.8-17.8 17.8s-17.8-8-17.8-17.8 8-17.8 17.8-17.8S75 464 75 473.8zm180.7 17.8c-9.8 0-17.8-8-17.8-17.8s8-17.8 17.8-17.8 17.8 8 17.8 17.8-8 17.8-17.8 17.8zM464.4 436.9v-40.5c0-25.8-21-46.7-46.7-46.7h-84.2c-5.6 0-10.2 4.6-10.2 10.2s4.6 10.2 10.2 10.2h84.2c14.5 0 26.3 11.8 26.3 26.3v40.8c-15.9 4.6-27.5 19.3-27.5 36.6 0 21.1 17.1 38.2 38.2 38.2s38.2-17.1 38.2-38.2c0-17.7-12.1-32.6-28.5-36.9zm-9.7 54.7c-9.8 0-17.8-8-17.8-17.8s8-17.8 17.8-17.8 17.8 8 17.8 17.8-8 17.8-17.8 17.8z"/>
</svg>
