<?xml version="1.0" encoding="utf-8"?>
<!-- Generator: Adobe Illustrator 18.0.0, SVG Export Plug-In . SVG Version: 6.00 Build 0)  -->
<!DOCTYPE svg PUBLIC "-//W3C//DTD SVG 1.1//EN" "http://www.w3.org/Graphics/SVG/1.1/DTD/svg11.dtd">
<svg version="1.1" id="Layer_1" xmlns="http://www.w3.org/2000/svg" xmlns:xlink="http://www.w3.org/1999/xlink" x="0px" y="0px"
	 viewBox="0 -7 512 521.5" enable-background="new 0 -7 512 521.5" xml:space="preserve">
<path fill="#0084A6" d="M311.5,10.5c-9.6-9.6-23.1-15-37-15H238c-13.9,0-27.4,5.5-37,15c-9.6,9.5-14.4,22.5-13.6,35.5l1.6,23.3
	l3.8,54.4c1.4,20.4,13.7,38.5,32.8,48.3c9.4,4.8,19.9,7.4,30.6,7.4c10.6,0,21-2.4,30.6-7.4c19.1-9.9,31.4-27.9,32.8-48.3l4.3-62.2
	l1.1-15.6C325.9,32.9,321,20,311.5,10.5z M210.2,57.5l-0.9-12.8c-0.5-7.5,2.3-14.6,7.7-20.1c5.5-5.5,12.9-8.5,20.9-8.5h32.1
	L263,33.9C261.1,36.6,248.3,52.9,210.2,57.5z M297.7,122.4c-1,13.3-8.9,25.1-21.5,31.6c-12.5,6.5-27.5,6.5-40.1,0
	c-12.5-6.5-20.5-18.3-21.5-31.6L211.5,78c30-3.3,48.3-13.2,58.8-21.7c2.5,1.9,5.4,3.7,8.8,5.4c4.9,2.3,12.2,4.6,22.2,7.1
	L297.7,122.4L297.7,122.4z M303.1,44.7l-0.2,3.2c-8-2.1-11.9-3.6-13.6-4.4c-3-1.4-4.5-2.6-5.4-3.3l7.5-18.8c1.4,1,2.7,2,3.9,3.2
	C300.9,30,303.6,37.2,303.1,44.7z M417.8,291.1l-6-31.3c-7.1-37.1-38.5-66.6-77.9-73.5c-5.9-1-12.1-1.6-18.1-1.6H291
	c-2.9,0-5.7,1.1-7.8,3l-27.2,25.4l-27.8-25.6c-2-1.9-4.9-2.9-7.7-2.9h-23.9c-6,0-12.2,0.5-18.1,1.6c-39.5,7-70.7,36.6-77.9,73.5
	l-6,31.3c-0.5,3,0.3,6.1,2.4,8.5c2,2.3,5.2,3.7,8.4,3.7h301.5c3.2,0,6.4-1.3,8.4-3.7C417.6,297.1,418.4,294.1,417.8,291.1
	L417.8,291.1z M216.2,205.2l32.3,29.8c4.3,3.9,11.2,3.9,15.5-0.1l31.6-29.7h11.1l-50.6,47.4l-50.6-47.4H216.2L216.2,205.2z
	 M118.6,282.6l3.7-19.2c5.2-27,27-48.8,54.9-55.7l71.3,66.8c2.2,2,5,3,7.8,3c2.8,0,5.6-1,7.8-3l71.3-66.8
	c27.9,7.1,49.6,28.9,54.9,55.7l3.7,19.2H118.6z M300.9,348.5h-6.7c-6,0-11,4.6-11,10.3s4.9,10.3,11,10.3h6.7c6,0,11-4.6,11-10.3
	S307,348.5,300.9,348.5L300.9,348.5z M267.2,436.8V332.7c0-5.7-5-10.3-11-10.3c-6,0-11,4.6-11,10.3v15.9H81.6
	c-27.8,0-50.3,21.2-50.3,47.2v41.1C13.9,441.3,1.1,456.3,1.1,474c0,21.3,18.4,38.6,41.2,38.6s41.2-17.3,41.2-38.6
	c0-17.7-12.8-32.6-30.2-37.2v-41.1c0-14.6,12.7-26.6,28.4-26.6h163.5v67.7c-17.4,4.5-30.2,19.5-30.2,37.2
	c0,21.3,18.4,38.6,41.2,38.6c22.7,0,41.2-17.3,41.2-38.6C297.4,456.3,284.6,441.3,267.2,436.8z M61.4,474c0,9.9-8.6,18-19.2,18
	S23,483.8,23,474c0-9.9,8.6-18,19.2-18S61.4,464.1,61.4,474z M256.2,491.9c-10.6,0-19.2-8.1-19.2-18c0-9.9,8.6-18,19.2-18
	s19.2,8.1,19.2,18C275.4,483.8,266.7,491.9,256.2,491.9z M481.2,436.7v-40.9c0-26.1-22.6-47.2-50.3-47.2h-90.8c-6,0-11,4.6-11,10.3
	s5,10.3,11,10.3h90.8c15.6,0,28.4,11.9,28.4,26.6V437c-17.1,4.6-29.6,19.5-29.6,37c0,21.3,18.4,38.6,41.2,38.6s41.2-17.3,41.2-38.6
	C511.9,456.1,498.9,441,481.2,436.7L481.2,436.7z M470.7,491.9c-10.6,0-19.2-8.1-19.2-18c0-9.9,8.6-18,19.2-18
	c10.6,0,19.2,8.1,19.2,18C489.9,483.8,481.3,491.9,470.7,491.9z"/>
</svg>
