<?xml version="1.0" encoding="utf-8"?>
<!-- Generator: Adobe Illustrator 18.0.0, SVG Export Plug-In . SVG Version: 6.00 Build 0)  -->
<!DOCTYPE svg PUBLIC "-//W3C//DTD SVG 1.1//EN" "http://www.w3.org/Graphics/SVG/1.1/DTD/svg11.dtd">
<svg version="1.1" id="Слой_1" xmlns="http://www.w3.org/2000/svg" xmlns:xlink="http://www.w3.org/1999/xlink" x="0px" y="0px"
	 viewBox="169.8 169.1 175.4 106.5" enable-background="new 169.8 169.1 175.4 106.5" xml:space="preserve">
<g id="logo">
	<path id="Path_3-2" fill="#EFBC94" d="M254.6,275V170h-28.8c-36.8,0-55.2,17-55.2,51.2c-0.7,14.6,4.9,28.8,15.3,39.1
		c11.1,10.2,25.9,15.4,41,14.8H254.6z M242.5,181.1v82.8h-15.6c-11.6,0.7-23.3-3.3-31.9-11.1c-8-8.3-12.1-19.8-11.5-31.4
		c0-26.9,14.2-40.3,42.7-40.3H242.5z"/>
	<path id="Path_4-2" fill="#EFBC94" d="M260,275V170h28.8c36.8,0,55.2,17,55.2,51.2c0.7,14.6-4.9,28.8-15.3,39.1
		c-11.1,10.2-25.9,15.4-41,14.8H260z M272.1,181.1v82.8h15.6c11.6,0.7,23.3-3.3,31.9-11.1c8-8.3,12.1-19.8,11.5-31.4
		c0-26.9-14.2-40.3-42.7-40.3H272.1z"/>
</g>
</svg>
