<svg xmlns="http://www.w3.org/2000/svg" viewBox="3477.104 -1888.134 75.538 86.844">
  <defs>
    <style>
      .cls-1 {
        fill: #f1f1f1;
      }

      .cls-1, .cls-2, .cls-4 {
        stroke: #95989a;
      }

      .cls-2 {
        fill: none;
      }

      .cls-3, .cls-4 {
        fill: #fff;
      }
    </style>
  </defs>
  <g id="правое_зааднее_крыло" data-name="правое зааднее крыло" transform="translate(3477.604 -1887.668)">
    <path id="Path_57_1_" class="cls-1" d="M75.035.5C63.812,4.87,45.849,13.188,35.814,20.931H20.187C10.612,20.931,3.1,26.144,3.1,35.42v1.457a18.862,18.862,0,0,0,3.754,11A13.177,13.177,0,0,0,.5,59.186,24.173,24.173,0,0,0,1.381,64.4H14.135A2.6,2.6,0,0,1,16.7,67.006c0,1.457-1.149,2.607-2.03,2.338H5.747c.038,0,.268.038.306.038,1.953.23,4.443,2.568,7.2,2.568H50.867c-.268-2.875-.575-4.063-.575-5.788,0-13.608,10.993-25.491,24.59-25.491h.153M42.44,20.356l30.986-.307a35.875,35.875,0,0,1,1.609-3.872V3.643C65.689,6.671,53.088,11.923,42.44,20.356ZM12.91,32.2H5.4C2.224,45.808,13.216,46.69,13.216,46.69Z" transform="translate(-0.5 -0.5)"/>
    <path id="Path_92" data-name="Path 92" class="cls-1" d="M21.428,30.718a21.16,21.16,0,0,1,0-42.318" transform="translate(53.11 55.16)"/>
    <path id="Path_93" data-name="Path 93" class="cls-1" d="M42.405,22.5V38.753a8.127,8.127,0,0,1,0-16.253Z" transform="translate(32.133 34.131)"/>
    <path id="Path_94" data-name="Path 94" class="cls-1" d="M2.8,167.4a20.678,20.678,0,0,0,2.068,3.22A6,6,0,0,0,7.2,172.23" transform="translate(-1.919 -103.424)"/>
    <path id="Path_95" data-name="Path 95" class="cls-1" d="M195.1,156.518V143.524m0-16.253V114.2" transform="translate(-120.565 -70.617)"/>
    <line id="Line_49" data-name="Line 49" class="cls-2" y1="71.412" transform="translate(74.535 0)"/>
    <path id="Path_96" data-name="Path 96" class="cls-3" d="M4.756,24.7H11.03L11.3,37.792a8.785,8.785,0,0,1-6.14-4.408C3.258,29.589,4.756,24.7,4.756,24.7Z" transform="translate(0.737 7.63)"/>
    <path id="Path_97" data-name="Path 97" class="cls-3" d="M14.963,29.768H3.741L.267,28.3,0,0A127.858,127.858,0,0,1,8.817,14.417,122.977,122.977,0,0,1,14.963,29.768Z" transform="translate(44.071 19.105) rotate(-90)"/>
    <path id="Path_112" data-name="Path 112" class="cls-4" d="M53.446,24.21v-3.24h-7.5v3.24Z" transform="translate(-41.012 6.527)"/>
  </g>
</svg>
