<svg xmlns="http://www.w3.org/2000/svg" viewBox="3264.093 -1697.689 123.117 84.691">
  <defs>
    <style>
      .cls-1 {
        fill: #f1f1f1;
      }

      .cls-1, .cls-2, .cls-3 {
        stroke: #9b9b9b;
        stroke-miterlimit: 10;
      }

      .cls-2, .cls-6 {
        fill: none;
      }

      .cls-3 {
        fill: #fff;
      }

      .cls-4 {
        fill: #9b9b9b;
        stroke: #95989a;
      }

      .cls-5 {
        stroke: none;
      }
    </style>
  </defs>
  <g id="передняя_часть_салона" data-name="передняя часть салона" transform="translate(3264.956 -1697.189)">
    <g id="Group_361" data-name="Group 361" transform="translate(0 64.567)">
      <path id="Path_291" data-name="Path 291" class="cls-1" d="M323.6,1504.395s5.409-9.434,7.2-11.373a19.661,19.661,0,0,1,5.286-3.947,71.11,71.11,0,0,1,7.177-2.315c.432-.121,8.122-1.21,12.113-1.424,3.489-.191,11.332.006,14.938,1,1.564.434,4.785,1.545,5.876,2.738a5.591,5.591,0,0,1,1.009,2.391c.315,3.224-1.225,12.907-1.225,12.907Z" transform="translate(-323.6 -1485.27)"/>
      <path id="Path_292" data-name="Path 292" class="cls-1" d="M1538.314,1504.395s-5.409-9.434-7.2-11.373a19.653,19.653,0,0,0-5.286-3.947,71.114,71.114,0,0,0-7.177-2.315c-.432-.121-8.122-1.21-12.114-1.424-3.489-.191-11.331.006-14.937,1-1.564.434-4.785,1.545-5.876,2.738a5.593,5.593,0,0,0-1.009,2.391c-.315,3.224,1.225,12.907,1.225,12.907Z" transform="translate(-1416.923 -1485.27)"/>
    </g>
    <path id="Path_293" data-name="Path 293" class="cls-1" d="M553.287,771.819h.449s23.322-.55,30.943.77c3.513.608,13.537,4.474,13.537,4.474a18.472,18.472,0,0,1,3.734,2.124,7.518,7.518,0,0,1,1.675,3.548c.017.8-.788,2.263-.934,3.05-.181.949.274,2.905.117,3.86a38.387,38.387,0,0,1-6.086,13.468c-.934,1.14-30.838.694-33.464,1.331-.566.139-1.482.955-2.042,1.1s-7.387.012-7.895,0h-.006c-.362.006-7.334.151-7.912,0-.56-.145-1.476-.961-2.042-1.1-2.626-.637-32.53-.191-33.464-1.331a38.3,38.3,0,0,1-6.086-13.468c-.157-.955.292-2.911.117-3.86-.146-.781-.951-2.252-.934-3.05a7.492,7.492,0,0,1,1.675-3.548,18.471,18.471,0,0,1,3.734-2.124s10.025-3.866,13.537-4.474c7.621-1.325,30.943-.77,30.943-.77h.443" transform="translate(-492.527 -748.436)"/>
    <path id="Path_294" data-name="Path 294" class="cls-2" d="M1582.8,1136.4s1.482-12.1,4.755-12.1h31.55" transform="translate(-1509.326 -1080.625)"/>
    <g id="Group_363" data-name="Group 363" transform="translate(55.345 61.027)">
      <path id="Path_295" data-name="Path 295" class="cls-1" d="M1275.047,1540.3h4.685a2.942,2.942,0,0,1,2.947,2.923v6.268a2.941,2.941,0,0,1-2.947,2.923h-4.685a2.942,2.942,0,0,1-2.947-2.923v-6.268A2.949,2.949,0,0,1,1275.047,1540.3Z" transform="translate(-1272.1 -1530.924)"/>
      <g id="Group_362" data-name="Group 362" transform="translate(3.192)">
        <path id="Path_296" data-name="Path 296" class="cls-3" d="M1329.081,1378.3a4.893,4.893,0,0,1,1.488.6,3.118,3.118,0,0,1,.624,1.62,25.384,25.384,0,0,1-.7,3.108c-.058.359-.018,1.088-.041,1.447-.064.99-.566,3.936-.566,3.936h-1.78s-.5-2.946-.566-3.936c-.023-.359.018-1.088-.04-1.447a25.34,25.34,0,0,1-.7-3.108,3.113,3.113,0,0,1,.625-1.62,4.893,4.893,0,0,1,1.487-.6Z" transform="translate(-1326.799 -1378.3)"/>
      </g>
    </g>
    <g id="Group_364" data-name="Group 364" transform="translate(51.238 29.552)">
      <path id="Path_298" data-name="Path 298" class="cls-3" d="M1202.059,880.329c1.22,0,5.3-.029,6.816-.029.875,0,1.027,2.894.368,3.473-1.132.99-4.68.654-6.039,0C1202.345,883.356,1201.108,880.329,1202.059,880.329Z" transform="translate(-1201.716 -880.3)"/>
      <path id="Path_299" data-name="Path 299" class="cls-3" d="M1396.9,880.329c-1.22,0-5.3-.029-6.815-.029-.875,0-1.027,2.894-.368,3.473,1.132.99,4.68.654,6.039,0C1396.617,883.356,1397.848,880.329,1396.9,880.329Z" transform="translate(-1378.36 -880.3)"/>
      <path id="Path_300" data-name="Path 300" class="cls-3" d="M2035.56,904.329c1.22,0,5.3-.029,6.815-.029.875,0,1.027,2.894.368,3.473-1.132.99-4.68.654-6.039,0C2035.845,907.356,2034.609,904.329,2035.56,904.329Z" transform="translate(-1989.796 -902.911)"/>
    </g>
    <g id="Group_365" data-name="Group 365" transform="translate(53.04 50.354)">
      <ellipse id="Ellipse_61" data-name="Ellipse 61" class="cls-3" cx="2.101" cy="2.084" rx="2.101" ry="2.084" transform="translate(0 0)"/>
      <ellipse id="Ellipse_62" data-name="Ellipse 62" class="cls-3" cx="2.101" cy="2.084" rx="2.101" ry="2.084" transform="translate(11.302 0)"/>
    </g>
    <g id="Group_366" data-name="Group 366" transform="translate(54.37 45.11)">
      <ellipse id="Ellipse_63" data-name="Ellipse 63" class="cls-3" cx="1.266" cy="1.256" rx="1.266" ry="1.256" transform="translate(0 0)"/>
      <ellipse id="Ellipse_64" data-name="Ellipse 64" class="cls-3" cx="1.266" cy="1.256" rx="1.266" ry="1.256" transform="translate(10.386 0)"/>
    </g>
    <path id="Path_301" data-name="Path 301" class="cls-3" d="M1233.982,1004h6.943c.449,0,1.027,1.377,1.109,1.811.221,1.227-1.407,4.225-2.667,4.225h-10.73c-1.26,0-2.888-3-2.667-4.225.082-.44.66-1.811,1.109-1.811Z" transform="translate(-1173.298 -967.288)"/>
    <path id="Path_302" data-name="Path 302" class="cls-3" d="M1826.619,1167.924c1.295-.509,4.58-.961,5.59,0,.368.353.269,2.662-.239,2.662-1.75,0-5.876.017-7.375.017C1823.859,1170.6,1825.936,1168.19,1826.619,1167.924Z" transform="translate(-1736.865 -1121.193)"/>
    <g id="Group_367" data-name="Group 367" transform="translate(29.953 55.974)">
      <path id="Path_304" data-name="Path 304" class="cls-1" d="M993.929,1358.8h5.689c.875,0-.193,3.415-1.068,3.415h-3.927C993.766,1362.214,993.066,1358.8,993.929,1358.8Z" transform="translate(-984.397 -1355.933)"/>
      <path id="Path_305" data-name="Path 305" class="cls-1" d="M837.33,1358.9h5.689c.875,0-.193,3.415-1.068,3.415h-3.927C837.166,1362.315,836.466,1358.9,837.33,1358.9Z" transform="translate(-836.935 -1356.027)"/>
      <path id="Path_306" data-name="Path 306" class="cls-1" d="M1142.5,1362.565h-1.634a.368.368,0,0,1-.367-.364v-2.836a.369.369,0,0,1,.367-.365h1.634a.369.369,0,0,1,.368.365v2.836A.368.368,0,0,1,1142.5,1362.565Z" transform="translate(-1122.787 -1356.121)"/>
      <line id="Line_69" data-name="Line 69" class="cls-2" y1="2.919" x2="0.351" transform="translate(12.87 0)"/>
      <line id="Line_70" data-name="Line 70" class="cls-2" y1="2.936" transform="translate(18.897 0)"/>
      <line id="Line_71" data-name="Line 71" class="cls-2" y1="2.814" x2="1.131" transform="translate(4.053 0)"/>
    </g>
    <g id="Group_368" data-name="Group 368" transform="translate(15.959 54.735)">
      <path id="Path_307" data-name="Path 307" class="cls-2" d="M2102.233,1315.9a51.191,51.191,0,0,0-.281,6.858,42.9,42.9,0,0,0,1.75,5.5" transform="translate(-2014.089 -1315.871)"/>
      <path id="Path_308" data-name="Path 308" class="cls-2" d="M598.57,1315.4a51.188,51.188,0,0,1,.28,6.858,42.874,42.874,0,0,1-1.751,5.5" transform="translate(-597.1 -1315.4)"/>
    </g>
    <g id="Group_369" data-name="Group 369" transform="translate(48.808 0.365)">
      <path id="Path_309" data-name="Path 309" class="cls-1" d="M1182.886,381.846a2.724,2.724,0,0,0-2.374-1.644H1177.9c-.974,0-1.529-.44-1.237-.984v-.59a2.018,2.018,0,0,0-1.039-1.91,9.965,9.965,0,0,0-3.378-.718h-.461a9.944,9.944,0,0,0-3.379.718,2.028,2.028,0,0,0-1.038,1.91v.59c.292.538-.263.984-1.237.984h-2.614a2.719,2.719,0,0,0-2.375,1.644l-.962,2.6a1.146,1.146,0,0,0,1.155,1.644h21.374a1.143,1.143,0,0,0,1.155-1.644Z" transform="translate(-1160.076 -376)"/>
      <path id="Path_310" data-name="Path 310" class="cls-1" d="M1257.3,448.6h0Z" transform="translate(-1251.627 -444.398)"/>
    </g>
    <g id="Group_370" data-name="Group 370" transform="translate(5.569 0)">
      <path id="Path_311" data-name="Path 311" class="cls-2" d="M1364.3,369.7h54.93a.265.265,0,0,1,.228.411c-1.733,2.726-11.641,18.191-16.239,22.746-1.132,1.123-6.71,1.152-6.71,1.152" transform="translate(-1309.144 -369.7)"/>
      <path id="Path_312" data-name="Path 312" class="cls-2" d="M474.246,369.7h-54.93a.265.265,0,0,0-.228.411c1.733,2.726,11.641,18.191,16.239,22.746,1.132,1.123,6.71,1.152,6.71,1.152" transform="translate(-419.044 -369.7)"/>
    </g>
    <g id="Group_378" data-name="Group 378" transform="translate(13.111 22.208)">
      <path id="Path_325" data-name="Path 325" class="cls-3" d="M564.743,753.4a16.31,16.31,0,1,0,16.443,16.31A16.376,16.376,0,0,0,564.743,753.4Zm-.006,29.106a12.849,12.849,0,1,1,12.954-12.849A12.9,12.9,0,0,1,564.737,782.506Z" transform="translate(-548.3 -753.4)"/>
      <path id="Path_326" data-name="Path 326" class="cls-3" d="M621.294,969.129a8.586,8.586,0,0,0,4.33-.949c.782-.417,1.96-1.881,2.8-2.171,1.1-.376,4.7,0,4.7,0s.677-1.748.817-2.361a26.773,26.773,0,0,0,.233-2.7s-5.211-2.651-7.06-3.253a15.316,15.316,0,0,0-5.817-1.192,16.048,16.048,0,0,0-5.934,1.192c-1.85.608-7.06,3.259-7.06,3.259a26.933,26.933,0,0,0,.233,2.7c.14.613.817,2.361.817,2.361s3.6-.376,4.7,0c.84.289,2.019,1.754,2.8,2.17A9.093,9.093,0,0,0,621.294,969.129Z" transform="translate(-604.799 -944.745)"/>
      <g id="Ellipse_65" data-name="Ellipse 65" class="cls-4" transform="translate(13.626 14.814)">
        <ellipse class="cls-5" cx="2.674" cy="2.652" rx="2.674" ry="2.652"/>
        <ellipse class="cls-6" cx="2.674" cy="2.652" rx="2.174" ry="2.152"/>
      </g>
    </g>
  </g>
</svg>
