<svg xmlns="http://www.w3.org/2000/svg" viewBox="3861.025 -1696.179 67.9 87.525">
  <defs>
    <style>
      .cls-1 {
        fill: #f1f1f1;
      }

      .cls-1, .cls-2, .cls-3 {
        stroke: #95989a;
      }

      .cls-2 {
        fill: #fff;
      }

      .cls-3 {
        fill: none;
      }

      .cls-4 {
        fill: #9b9b9b;
      }
    </style>
  </defs>
  <g id="заказ_наряды" data-name="заказ наряды" transform="translate(3861.525 -1695.679)">
    <path id="Path_337" data-name="Path 337" class="cls-1" d="M1058.3,467.2h48.187v76.947H1058.3Z" transform="translate(-1039.587 -467.2)"/>
    <path id="Path_338" data-name="Path 338" class="cls-2" d="M1058.3,467.2h48.187v76.947H1058.3Z" transform="translate(-1058.3 -457.622)"/>
    <line id="Line_112" data-name="Line 112" class="cls-3" x2="29.673" y2="9.449" transform="translate(19.153 0.405)"/>
    <path id="Path_339" data-name="Path 339" class="cls-4" d="M8.635,18.831a23.646,23.646,0,0,1-4.179-.408,10.689,10.689,0,0,1-2.936-.965l1.157-3.131a10.082,10.082,0,0,0,2.336.944,14.193,14.193,0,0,0,3.622.472V4.161q-1.286-.643-2.55-1.373a10.384,10.384,0,0,1-2.25-1.737A7.883,7.883,0,0,1,2.249-1.33a8.1,8.1,0,0,1-.6-3.26A7.381,7.381,0,0,1,3.384-9.652,8.153,8.153,0,0,1,8.635-12.1V-16h2.915v3.775a19.834,19.834,0,0,1,3.579.407,12.893,12.893,0,0,1,2.507.836L16.607-7.936a10.967,10.967,0,0,0-2.057-.751,14.487,14.487,0,0,0-3-.408V1.458q1.329.686,2.657,1.48a12.632,12.632,0,0,1,2.379,1.823,8.206,8.206,0,0,1,1.693,2.4,7.516,7.516,0,0,1,.643,3.217,8.149,8.149,0,0,1-1.864,5.512,8.876,8.876,0,0,1-5.508,2.767v3.946H8.635Zm6.729-8.15A4.474,4.474,0,0,0,15,8.836a5.284,5.284,0,0,0-.964-1.458,7.126,7.126,0,0,0-1.414-1.158q-.814-.515-1.757-.987V15.656A5.767,5.767,0,0,0,14.1,14.134,4.58,4.58,0,0,0,15.364,10.681ZM5.206-4.781A4,4,0,0,0,6.385-1.792,12.793,12.793,0,0,0,9.321.3V-9.051A4.383,4.383,0,0,0,6.128-7.557,4.536,4.536,0,0,0,5.206-4.781Z" transform="translate(14.435 45.022)"/>
  </g>
</svg>
