<svg xmlns="http://www.w3.org/2000/svg" viewBox="2699.242 -1696.449 122.531 84.691">
  <defs>
    <style>
      .cls-1 {
        fill: #f1f1f1;
      }

      .cls-1, .cls-2, .cls-3 {
        stroke: #9b9b9b;
        stroke-miterlimit: 10;
      }

      .cls-2, .cls-4 {
        fill: #fff;
      }

      .cls-3, .cls-6 {
        fill: none;
      }

      .cls-4 {
        stroke: #95989a;
      }

      .cls-5 {
        stroke: none;
      }
    </style>
  </defs>
  <g id="задняя_часть" data-name="задняя часть" transform="translate(2699.813 -1695.949)">
    <g id="Group_266" data-name="Group 266" transform="translate(1.57 66.987)">
      <path id="Path_101" data-name="Path 101" class="cls-1" d="M1871.4,1278.047c0,.278.457.5,1.022.5h15.9c.565,0,1.022-.224,1.022-.5V1262.5c0-.277-.457-.5-1.022-.5h-15.9c-.565,0-1.022.224-1.022.5Z" transform="translate(-1771.407 -1261.839)"/>
      <path id="Path_102" data-name="Path 102" class="cls-1" d="M49.509,1275.048c0,.277-.326.5-.891.5h-15.8c-.56,0-1.016-.224-1.016-.5V1259.5c0-.277.451-.5.8-.5h15.8c.772,0,1.1.213,1.1.5v15.552Z" transform="translate(-31.8 -1259)"/>
    </g>
    <path id="Path_103" data-name="Path 103" class="cls-1" d="M63.61,73.843H94.49a4.764,4.764,0,0,1,2.609.987,4.806,4.806,0,0,1,.7,2.464c.011.811-1.093,3.152-.8,3.152h18.671a5.154,5.154,0,0,0,2.707-1.675c1.419-1.691,1.881-6.416,3.212-8.176.168-.224.75-.453.9-.688.9-1.36,1.413-4.688,1.6-6.3a75.117,75.117,0,0,0-.1-12.213c-.13-1.344-.381-4.112-1.006-5.317-.6-1.147-2.924-2.645-3.615-3.744-1.582-2.507-2.555-8.565-4.137-11.067a7.328,7.328,0,0,0-1.272-1.312c-.245-.2-.924-.384-1.071-.656-2.642-4.923-4.865-8.491-6.86-12.272C104.883,14.84,98.3,7.9,96.5,6.936,89.419,3.139,63.676,3,63.676,3h-.125s-25.738.139-32.831,3.936c-1.8.96-8.387,7.9-9.54,10.085-1.995,3.781-4.218,7.349-6.86,12.272-.147.272-.826.459-1.071.656a7.509,7.509,0,0,0-1.272,1.312c-1.587,2.507-2.555,8.565-4.137,11.067-.69,1.093-3.017,2.592-3.615,3.744-.625,1.205-.87,3.973-1.006,5.317a74.507,74.507,0,0,0-.1,12.213c.2,1.611.7,4.944,1.6,6.3.158.235.734.464.9.688,1.332,1.76,1.794,6.485,3.212,8.176a5.175,5.175,0,0,0,2.707,1.675H30.219c.288,0-.815-2.341-.8-3.152a4.913,4.913,0,0,1,.7-2.464,4.78,4.78,0,0,1,2.609-.987H63.61" transform="translate(-2.911 -3)"/>
    <g id="Group_267" data-name="Group 267" transform="translate(8.641 30.496)">
      <path id="Path_104" data-name="Path 104" class="cls-2" d="M135.476,588.143c-6.453.051-13.449-.015-17.485.01-1.19.01,1.759-13.353,3.974-13.353h7.55c.078,0,2.106,4.63,2.106,4.63Z" transform="translate(-117.718 -574.8)"/>
      <line id="Line_51" data-name="Line 51" class="cls-2" x2="12.129" transform="translate(1.691 4.635)"/>
    </g>
    <g id="Group_268" data-name="Group 268" transform="translate(94.078 30.547)">
      <path id="Path_105" data-name="Path 105" class="cls-2" d="M1768.8,589.143c6.453.051,13.449-.015,17.485.01,1.19.01-1.759-13.353-3.974-13.353h-7.55c-.078,0-2.106,4.63-2.106,4.63Z" transform="translate(-1768.801 -575.8)"/>
      <line id="Line_52" data-name="Line 52" class="cls-2" x1="12.124" transform="translate(3.938 4.635)"/>
    </g>
    <path id="Path_106" data-name="Path 106" class="cls-2" d="M363.127,49.288c.957.032,39.62,1.365,42.925,2.032,2.087.421-7.86-13-10.007-14.277C394.283,36,372.753,32.6,363.122,32.6c-8.865,0-29.765,2.571-32.913,4.443-1.954,1.165-10.3,12.381-10.279,14.132,0,.109.084.183.272.145,3.327-.672,42.365-2.011,42.936-2.032h-.011" transform="translate(-302.423 -31.021)"/>
    <path id="Path_107" data-name="Path 107" class="cls-1" d="M292.109,347.441l-1.609,2.944,9.621,22.71,1.016,1.253,1.761.821h64.3l1.783-.832,1.027-1.269,9.746-22.981-1.169-2.629L335.317,345.5Z" transform="translate(-274.596 -327.233)"/>
    <path id="Path_108" data-name="Path 108" class="cls-2" d="M778.009,615.17c-.614.091-1.109-.234-1.109-.629V603.32c0-.4.495-.72,1.109-.72h34.674c.614,0,1.109.325,1.109.72v11.216c0,.4-.495.72-1.109.629H778.009Z" transform="translate(-734.829 -570.621)"/>
    <g id="Group_269" data-name="Group 269" transform="translate(29.346 72.187)">
      <ellipse id="Ellipse_33" data-name="Ellipse 33" class="cls-3" cx="2.446" cy="2.4" rx="2.446" ry="2.4" transform="translate(0 0.16)"/>
      <ellipse id="Ellipse_34" data-name="Ellipse 34" class="cls-3" cx="2.446" cy="2.4" rx="2.446" ry="2.4" transform="translate(6.197 0.213)"/>
      <ellipse id="Ellipse_35" data-name="Ellipse 35" class="cls-3" cx="2.446" cy="2.4" rx="2.446" ry="2.4" transform="translate(52.019)"/>
      <ellipse id="Ellipse_36" data-name="Ellipse 36" class="cls-3" cx="2.446" cy="2.4" rx="2.446" ry="2.4" transform="translate(58.216 0.053)"/>
    </g>
    <g id="Group_270" data-name="Group 270" transform="translate(1.728 13.488)">
      <path id="Path_109" data-name="Path 109" class="cls-1" d="M46.338,261.3a.98.98,0,0,1-.989.971H35.689a.98.98,0,0,1-.989-.971v-4.427a.98.98,0,0,1,.989-.971h9.659a.98.98,0,0,1,.989.971Z" transform="translate(-34.7 -255.9)"/>
      <path id="Path_110" data-name="Path 110" class="cls-1" d="M1988.6,261.3a.98.98,0,0,0,.989.971h9.659a.98.98,0,0,0,.989-.971v-4.427a.98.98,0,0,0-.989-.971h-9.659a.98.98,0,0,0-.989.971Z" transform="translate(-1882.394 -255.9)"/>
    </g>
    <g id="Rectangle_126" data-name="Rectangle 126" class="cls-4" transform="translate(4.795 70.562)">
      <rect class="cls-5" width="16.219" height="3.979" rx="1.989"/>
      <rect class="cls-6" x="0.5" y="0.5" width="15.219" height="2.979" rx="1.489"/>
    </g>
    <g id="Rectangle_127" data-name="Rectangle 127" class="cls-4" transform="translate(100.758 70.562)">
      <rect class="cls-5" width="16.219" height="3.979" rx="1.989"/>
      <rect class="cls-6" x="0.5" y="0.5" width="15.219" height="2.979" rx="1.489"/>
    </g>
  </g>
</svg>
