<svg xmlns="http://www.w3.org/2000/svg" viewBox="3843.892 -1887.618 97.318 85.642">
  <defs>
    <style>
      .cls-1 {
        fill: #f1f1f1;
      }

      .cls-1, .cls-2 {
        stroke: #95989a;
      }

      .cls-2 {
        fill: none;
      }
    </style>
  </defs>
  <g id="правое_переднее_крыло" data-name="правое переднее крыло" transform="translate(3844.392 -1887.074)">
    <path id="Path_57_2_" class="cls-1" d="M95.884,39.713c-1.235-4.611-2.832-6.02-7.643-7.457l-1.077-.287L35.937,22.2S6.927,2.217,1.469.744C1.254.708.931.636.5.6V5.451C12.959,10.23,26.71,21.944,26.71,21.944L.5,22.159V66.752H20.211a1.349,1.349,0,0,1,1.328,1.329,1.333,1.333,0,0,1-1.328,1.365H.5v2.192H25.058c-.251-2.695-.539-3.809-.539-5.426,0-12.756,10.3-23.9,23.05-23.9S70.62,53.169,70.62,65.925a51.289,51.289,0,0,1-.539,5.713H90.1C99.5,71.638,96.324,41.355,95.884,39.713ZM93.232,47.2H86.195l-.287-13.582S96.212,34.448,93.232,47.2Z" transform="translate(-0.5 -0.6)"/>
    <path id="Path_58_2_" class="cls-1" d="M-41.981,39.569A19.82,19.82,0,0,1-61.8,19.735,19.82,19.82,0,0,1-41.981-.1,19.82,19.82,0,0,1-22.162,19.735,19.744,19.744,0,0,1-41.837,39.569h-.144" transform="translate(89.628 45.029)"/>
    <path id="Path_61_2_" class="cls-1" d="M-20.188,34A7.619,7.619,0,0,0-27.8,41.618a7.619,7.619,0,0,0,7.612,7.618,7.619,7.619,0,0,0,7.612-7.618h0A7.642,7.642,0,0,0-20.188,34Z" transform="translate(67.836 23.182)"/>
    <path id="Path_98" data-name="Path 98" class="cls-1" d="M27.823,87.3a45.063,45.063,0,0,0-6.211,16.924.986.986,0,0,1-1.005.9L.5,105.051V60.926l26.425-.252c.072-.036.108,0,.144.072a26.584,26.584,0,0,1,3.016,9.378C30.408,73.359,31.2,81.875,27.823,87.3Z" transform="translate(-0.5 -39.08)"/>
    <path id="Path_99" data-name="Path 99" class="cls-1" d="M30.462,49.114c2.154.647,9.981.108,9.981.108S36.063,45.7,34.7,45.7,29.169,48.754,30.462,49.114Z" transform="translate(-19.547 -29.495)"/>
    <line id="Line_50" data-name="Line 50" class="cls-2" y1="71.038" transform="translate(0 0)"/>
  </g>
</svg>
