<svg xmlns="http://www.w3.org/2000/svg" viewBox="3076.305 -1882.659 122.388 76.609">
  <defs>
    <style>
      .cls-1 {
        fill: #f1f1f1;
      }

      .cls-1, .cls-2, .cls-3 {
        stroke: #95989a;
      }

      .cls-2 {
        fill: #fff;
      }

      .cls-3 {
        fill: none;
      }
    </style>
  </defs>
  <g id="левая_боковая_честь_" data-name="левая боковая честь " transform="translate(3076.802 -1882.138)">
    <path id="Path_57_1_" class="cls-1" d="M8.928,20.064s4.753-3.294,10.583-7.195C27.148,7.785,36.622,1.71,39.347.942c4.785-1.279,72.687.224,77.092.991a35.331,35.331,0,0,1,5.45,1.727V6.442a82.1,82.1,0,0,0-9.03-2.3,31.017,31.017,0,0,1,9.03,9.561V38.1c-10.2,1.183-18.124,10.3-18.124,20.881a46.013,46.013,0,0,0,.475,5.084H18.529c.222-2.4.475-3.39.475-4.829C19,48.492,10.893,39.059.5,38.067V21.5ZM48.694,3.4C39.283,3.021,25.12,13.413,19.511,17.858c-1.521,1.215-2.44,1.983-2.44,1.983l2.44.032,51.68.448L71.445,3.4H48.694Zm56.274.48L75.025,3.628l.253,16.916,45.247.256S115.741,4.619,104.968,3.884ZM22.807,62.114h77.345a1.156,1.156,0,0,0,1.172-1.183,1.182,1.182,0,0,0-1.172-1.215H22.807A1.2,1.2,0,0,0,21.634,60.9,1.182,1.182,0,0,0,22.807,62.114Z" transform="translate(-0.497 -0.445)"/>
    <path id="Path_82" data-name="Path 82" class="cls-1" d="M196,36.483A17.673,17.673,0,0,0,196,1.5" transform="translate(-196 39.045)"/>
    <path id="Path_83" data-name="Path 83" class="cls-1" d="M230,49.127A6.817,6.817,0,0,0,230,36.4" transform="translate(-230 15.305)"/>
    <path id="Path_84" data-name="Path 84" class="cls-1" d="M-123.806,1.4A17.6,17.6,0,0,0-139.3,18.923a17.551,17.551,0,0,0,15.494,17.555" transform="translate(245.194 39.113)"/>
    <path id="Path_85" data-name="Path 85" class="cls-1" d="M-139.3,42.559a6.818,6.818,0,0,0,4.721,6.491V36.1a6.677,6.677,0,0,0-2.757,1.695A6.777,6.777,0,0,0-139.3,42.559Z" transform="translate(255.967 15.509)"/>
    <path id="Path_86" data-name="Path 86" class="cls-1" d="M49.9,63.944s-.349,11.16-3.834,14.677c-.76.767-7.795,3.741-10.773,8.57a35.23,35.23,0,0,0-4.943,14.422.873.873,0,0,1-.887.8l-24.937-.128L4.553,63.4l45.216.32C49.9,63.752,49.959,63.848,49.9,63.944Z" transform="translate(70.196 -43.269)"/>
    <path id="Path_87" data-name="Path 87" class="cls-1" d="M163.541,61.837a23.791,23.791,0,0,0-2.662,8.346c-.285,2.878-.982,10.456,2,15.285a40.324,40.324,0,0,1,5.482,15.061.873.873,0,0,0,.887.8l48.7-.128V62.317l-54.278-.544C163.6,61.741,163.573,61.773,163.541,61.837Z" transform="translate(-147.284 -42.154)"/>
    <path id="Path_88" data-name="Path 88" class="cls-1" d="M296.825,49.838c-1.9.576-8.809.1-8.809.1s3.866-3.134,5.07-3.134S297.965,49.518,296.825,49.838Z" transform="translate(-266.752 -31.977)"/>
    <path id="Path_89" data-name="Path 89" class="cls-2" d="M170.563,89.518h7.668a1.379,1.379,0,0,0,1.362-1.375h0A1.352,1.352,0,0,0,178.23,86.8h-7.668a1.372,1.372,0,0,0-1.362,1.343h0A1.423,1.423,0,0,0,170.563,89.518Z" transform="translate(-111.656 -59.186)"/>
    <path id="Path_90" data-name="Path 90" class="cls-2" d="M15.032,89.518h7.636A1.352,1.352,0,0,0,24,88.143h0A1.345,1.345,0,0,0,22.668,86.8H15.032A1.345,1.345,0,0,0,13.7,88.143h0A1.332,1.332,0,0,0,15.032,89.518Z" transform="translate(93.209 -59.186)"/>
    <path id="Path_91" data-name="Path 91" class="cls-1" d="M383.6,127.2v35.015" transform="translate(-383.598 -86.667)"/>
    <line id="Line_47" data-name="Line 47" class="cls-3" y1="72.364" transform="translate(121.391 3.215)"/>
    <line id="Line_48" data-name="Line 48" class="cls-3" y1="54.489" transform="translate(0.003 21.059)"/>
  </g>
</svg>
