<svg xmlns="http://www.w3.org/2000/svg" viewBox="3075.587 -1701.452 125.093 92.777">
  <defs>
    <style>
      .cls-1 {
        fill: #f1f1f1;
      }

      .cls-1, .cls-2, .cls-3 {
        stroke: #95989a;
        stroke-miterlimit: 10;
      }

      .cls-2 {
        fill: none;
      }

      .cls-3 {
        fill: #fff;
      }
    </style>
  </defs>
  <g id="задняя_часть_салона" data-name="задняя часть салона" transform="translate(3076.089 -1700.966)">
    <path id="каркас_1_" class="cls-1" d="M84.15,222.183H54.318s-5.113-.123-6.976-.047a4.9,4.9,0,0,0-.58.047,7.286,7.286,0,0,0-2.619,1.526,10.839,10.839,0,0,0-1.129,1.054,13.783,13.783,0,0,0-2.318,3.953c-3.383,11.7-4.765,48.456-4.765,48.456s-5.8,8.449-6.053,11.73c-.223,2.962,2.181,8.492,4.306,10.591,3.391,3.358,7.2,5.355,13.33,5.355,14.8,0,43.935-.009,43.935-.009h.919s29.137.009,43.935.009c6.135,0,9.938-2,13.33-5.355,2.121-2.1,4.529-7.629,4.306-10.591-.249-3.285-6.053-11.73-6.053-11.73s-1.387-36.755-4.765-48.456a13.727,13.727,0,0,0-2.318-3.953,12.553,12.553,0,0,0-2.434-1.993,4.3,4.3,0,0,0-1.314-.582,22.861,22.861,0,0,0-2.572-.072c-2.207,0-4.984.072-4.984.072H99.665" transform="translate(-29.863 -213.058)"/>
    <path id="Path_117" data-name="Path 117" class="cls-2" d="M1526.805,1334.932s-6.508-2.631-9.324-3.727l-.249-.1c-.91-.374-2.323-1.037-3.778-1.7a28.592,28.592,0,0,0-4.752-1.836c-.129-.026-.275-.051-.425-.077a74.658,74.658,0,0,0-10.647-.578c-2.593.111-7.165.421-11.819.761-7.341.54-14.875,1.152-15.107,1.169h.013" transform="translate(-1408.845 -1270.89)"/>
    <path id="Path_118" data-name="Path 118" class="cls-2" d="M228.066,1328.938h-.026c-.429-.034-6.431-.523-12.87-1l-2.215-.166c-.558-.042-1.116-.081-1.67-.119-4.057-.289-7.873-.544-10.157-.637a76.839,76.839,0,0,0-10.23.514c-.313.043-.6.09-.841.141a35.53,35.53,0,0,0-5.71,2.274c-1.236.565-2.365,1.088-3.07,1.36-.137.055-.288.111-.438.174-2.971,1.177-8.539,3.566-8.539,3.566" transform="translate(-166.185 -1270.979)"/>
    <path id="Path_119" data-name="Path 119" class="cls-2" d="M172.316,1728.1c.219,2.354-2.147,6.749-4.237,8.42-3.34,2.669-7.083,4.254-13.124,4.254-14.57,0-43.256,0-43.256,0h-1.108s-28.686,0-43.256,0c-6.04,0-9.784-1.586-13.124-4.254-2.091-1.671-4.46-6.065-4.237-8.42" transform="translate(-49.096 -1655.04)"/>
    <g id="Group_272" data-name="Group 272" transform="translate(13.284 9.074)">
      <path id="Path_120" data-name="Path 120" class="cls-2" d="M366.385,223.11v49.369c-1.236.565-2.365,1.088-3.07,1.36-.137.055-.288.11-.438.174a.517.517,0,0,1-.378-.493V224.173a7.287,7.287,0,0,1,2.619-1.526,4.183,4.183,0,0,1,.58-.047h.172A.514.514,0,0,1,366.385,223.11Z" transform="translate(-361.504 -222.6)"/>
      <g id="Group_271" data-name="Group 271" transform="translate(0 35.625)">
        <path id="Path_121" data-name="Path 121" class="cls-2" d="M344.683,1062.925h-4.868a.514.514,0,0,1-.515-.51v-1.105a.514.514,0,0,1,.515-.51h4.864a.514.514,0,0,1,.515.51v1.105A.51.51,0,0,1,344.683,1062.925Z" transform="translate(-339.3 -1060.8)"/>
        <path id="Path_122" data-name="Path 122" class="cls-2" d="M383.64,1114.6h-1.125a.514.514,0,0,1-.515-.51v-1.479a.514.514,0,0,1,.515-.51h1.125a.514.514,0,0,1,.515.51v1.479A.514.514,0,0,1,383.64,1114.6Z" transform="translate(-380.167 -1109.919)"/>
        <path id="Path_123" data-name="Path 123" class="cls-2" d="M392.881,1125.1h-.266a.514.514,0,0,1-.515-.51v-.484a.514.514,0,0,1,.515-.51h.266a.514.514,0,0,1,.515.51v.484A.514.514,0,0,1,392.881,1125.1Z" transform="translate(-389.833 -1120.931)"/>
      </g>
    </g>
    <g id="Group_276" data-name="Group 276" transform="translate(103.618 9.052)">
      <path id="Path_128" data-name="Path 128" class="cls-2" d="M2470.485,222.741v50.517c-.034,0-.073,0-.108-.008-.91-.374-2.318-1.037-3.777-1.7V222.086a22.791,22.791,0,0,1,2.571.072A4.2,4.2,0,0,1,2470.485,222.741Z" transform="translate(-2465.608 -222.085)"/>
      <g id="Group_275" data-name="Group 275" transform="translate(0 36.454)">
        <path id="Path_129" data-name="Path 129" class="cls-2" d="M2448.879,1081.925h-4.864a.514.514,0,0,1-.515-.51v-1.105a.514.514,0,0,1,.515-.51h4.864a.514.514,0,0,1,.515.51v1.105A.514.514,0,0,1,2448.879,1081.925Z" transform="translate(-2443.5 -1079.8)"/>
        <path id="Path_130" data-name="Path 130" class="cls-2" d="M2487.74,1133.6h-1.125a.514.514,0,0,1-.515-.51v-1.479a.514.514,0,0,1,.515-.51h1.125a.514.514,0,0,1,.515.51v1.479A.514.514,0,0,1,2487.74,1133.6Z" transform="translate(-2484.271 -1128.92)"/>
        <path id="Path_131" data-name="Path 131" class="cls-2" d="M2496.981,1144.1h-.267a.514.514,0,0,1-.515-.51v-.485a.514.514,0,0,1,.515-.51h.267a.514.514,0,0,1,.515.51v.485A.514.514,0,0,1,2496.981,1144.1Z" transform="translate(-2493.937 -1139.931)"/>
      </g>
    </g>
    <g id="Group_277" data-name="Group 277" transform="translate(49.944 58.554)">
      <path id="Path_132" data-name="Path 132" class="cls-2" d="M1164.361,1391.178h-1.846a.514.514,0,0,1-.515-.51v-3.358a.514.514,0,0,1,.515-.51h1.846a.514.514,0,0,1,.515.51v3.358A.517.517,0,0,1,1164.361,1391.178Z" transform="translate(-1162 -1386.8)"/>
      <path id="Path_133" data-name="Path 133" class="cls-2" d="M1663.361,1392.178h-1.846a.514.514,0,0,1-.515-.51v-3.358a.514.514,0,0,1,.515-.51h1.846a.514.514,0,0,1,.515.51v3.358A.517.517,0,0,1,1663.361,1392.178Z" transform="translate(-1639.578 -1387.757)"/>
    </g>
    <path id="Path_134" data-name="Path 134" class="cls-3" d="M621.389,614.222c-3.181-.229-6.221-.434-8.483-.557-.622-.034-1.181-.064-1.674-.081-.137,0-.288-.013-.451-.013A79.049,79.049,0,0,0,601,614.1a5.144,5.144,0,0,1-.2-1.441v-25.5a5.3,5.3,0,0,1,5.31-5.257h11.917a5.316,5.316,0,0,1,3.361,1.194" transform="translate(-576.29 -557.555)"/>
    <path id="Path_135" data-name="Path 135" class="cls-3" d="M1844.138,587.823V614.11c0,.178-.009.353-.026.527a74.594,74.594,0,0,0-10.647-.578c-2.593.111-7.169.421-11.819.761a5.422,5.422,0,0,1-.047-.705V587.823a5.384,5.384,0,0,1,5.311-5.423h11.913A5.39,5.39,0,0,1,1844.138,587.823Z" transform="translate(-1744.68 -558.034)"/>
    <g id="Group_280" data-name="Group 280" transform="translate(6.304 61.716)">
      <g id="Group_278" data-name="Group 278" transform="translate(0 0.009)">
        <path id="Path_136" data-name="Path 136" class="cls-3" d="M215.221,1486.048h0c0-3.515-.369-9.948,0-13.445.266-2.516,2.1-9.9,2.1-9.9h-22.5s-8.436,10.264-11.763,13.175c-1.138,1-3.8,2.584-4.735,3.77a21.706,21.706,0,0,0-1.631,3.514s1.243,2.092,8.35,3.419,30.712,0,30.712,0" transform="translate(-176.7 -1462.645)"/>
        <path id="Path_137" data-name="Path 137" class="cls-3" d="M672,1474.576l7.44-13.176h1.4l-6.611,13.261Z" transform="translate(-650.737 -1461.4)"/>
        <path id="Path_138" data-name="Path 138" class="cls-2" d="M403.3,1696.8a24.929,24.929,0,0,0,4.065,2.665c1.747.587,7.354.51,7.354.51l2.348.085s6.925.034,7.5-.055c1.017-.158,7.47-3.031,7.47-3.031" transform="translate(-393.572 -1686.795)"/>
      </g>
      <g id="Group_279" data-name="Group 279" transform="translate(71.097)">
        <path id="Path_139" data-name="Path 139" class="cls-3" d="M1834.9,1486.471c0-3.515.37-10.57,0-14.068-.266-2.516-2.1-9.9-2.1-9.9h22.5s8.436,10.264,11.762,13.176c1.138,1,3.8,2.584,4.736,3.77a21.727,21.727,0,0,1,1.631,3.515,21.6,21.6,0,0,1-7.75,3.511C1861.383,1487.35,1834.9,1486.471,1834.9,1486.471Z" transform="translate(-1832.8 -1462.445)"/>
        <path id="Path_140" data-name="Path 140" class="cls-3" d="M2086.543,1474.375l-7.44-13.175h-1.4l6.611,13.26Z" transform="translate(-2067.187 -1461.2)"/>
        <path id="Path_141" data-name="Path 141" class="cls-2" d="M1911.737,1696.6a24.927,24.927,0,0,1-4.065,2.666c-1.747.586-7.354.51-7.354.51l-2.348.085s-6.925.034-7.5-.055c-1.017-.158-7.47-3.031-7.47-3.031" transform="translate(-1880.845 -1686.595)"/>
      </g>
    </g>
    <g id="Group_274" data-name="Group 274" transform="translate(44.108 9.125)">
      <path id="Path_124" data-name="Path 124" class="cls-2" d="M1084.385,223.8v47.831c-1.292-.1-2.6-.191-3.885-.285V223.8Z" transform="translate(-1079.504 -223.8)"/>
      <g id="Group_273" data-name="Group 273" transform="translate(0 33.831)">
        <path id="Path_125" data-name="Path 125" class="cls-2" d="M1062.679,1021.925h-4.864a.514.514,0,0,1-.515-.51v-1.105a.514.514,0,0,1,.515-.51h4.864a.514.514,0,0,1,.515.51v1.105A.514.514,0,0,1,1062.679,1021.925Z" transform="translate(-1057.3 -1019.8)"/>
        <path id="Path_126" data-name="Path 126" class="cls-2" d="M1101.635,1073.6h-1.12a.514.514,0,0,1-.515-.51v-1.479a.514.514,0,0,1,.515-.51h1.125a.514.514,0,0,1,.515.51v1.479A.521.521,0,0,1,1101.635,1073.6Z" transform="translate(-1098.167 -1068.919)"/>
        <path id="Path_127" data-name="Path 127" class="cls-2" d="M1110.881,1084.1h-.266a.514.514,0,0,1-.515-.51v-.484a.514.514,0,0,1,.515-.51h.266a.514.514,0,0,1,.515.51v.484A.514.514,0,0,1,1110.881,1084.1Z" transform="translate(-1107.833 -1079.931)"/>
      </g>
    </g>
    <path id="Path_142" data-name="Path 142" class="cls-2" d="M1269.351,459.115H1253.7a1.8,1.8,0,0,1-1.8-1.785V427.685a1.8,1.8,0,0,1,1.8-1.785h15.648a1.8,1.8,0,0,1,1.8,1.785V457.33A1.8,1.8,0,0,1,1269.351,459.115Z" transform="translate(-1199.438 -408.185)"/>
    <path id="Path_143" data-name="Path 143" class="cls-2" d="M835.525,581.9v31.765c-.618-.034-1.181-.064-1.674-.081-.137,0-.288-.013-.451-.013V581.9Z" transform="translate(-798.904 -557.555)"/>
    <path id="Path_144" data-name="Path 144" class="cls-2" d="M2060.4,581.9v31.765c.618-.034,1.181-.064,1.675-.081.137,0,.287-.013.451-.013V581.9Z" transform="translate(-1973.229 -557.555)"/>
    <g id="подголовники_1_" transform="translate(24.99 0)">
      <path id="Path_114" data-name="Path 114" class="cls-3" d="M1297.027,140.646c1.713,0,6.577-.136,6.856.14,1.666,1.649,1.142,8.373.966,8.832s-6.693.421-7.693.408h0s-7.625.1-7.822-.408c-.176-.459-.7-7.183.966-8.832C1290.558,140.54,1296.109,140.646,1297.027,140.646Z" transform="translate(-1260.047 -135.023)"/>
      <path id="Path_115" data-name="Path 115" class="cls-3" d="M620.879,10.145c1.927,0,7.4-.187,7.71.2,1.872,2.308,1.288,11.73,1.086,12.372s-7.53.587-8.655.574h0s-8.577.136-8.8-.57c-.193-.642-.781-10.064,1.09-12.372C613.6,9.992,619.848,10.149,620.879,10.145Z" transform="translate(-611.978 -10.056)"/>
      <path id="Path_116" data-name="Path 116" class="cls-3" d="M1956.879,9.145c1.928,0,7.4-.187,7.71.2,1.872,2.308,1.288,11.73,1.086,12.372s-7.53.587-8.655.574h0s-8.577.136-8.8-.57c-.193-.642-.781-10.064,1.091-12.372C1949.6,8.992,1955.848,9.149,1956.879,9.145Z" transform="translate(-1891.965 -9.098)"/>
    </g>
  </g>
</svg>
