<svg xmlns="http://www.w3.org/2000/svg" viewBox="3643.669 -1882.659 122.389 76.61">
  <defs>
    <style>
      .cls-1 {
        fill: #f1f1f1;
      }

      .cls-1, .cls-2, .cls-3 {
        stroke: #95989a;
      }

      .cls-2 {
        fill: #fff;
      }

      .cls-3 {
        fill: none;
      }
    </style>
  </defs>
  <g id="правая_боковая_честь_" data-name="правая боковая честь " transform="translate(3644.169 -1882.138)">
    <path id="Path_57_1_" class="cls-1" d="M113.46,20.064s-4.753-3.294-10.583-7.195C95.241,7.785,85.767,1.71,83.042.942c-4.785-1.279-72.687.224-77.092.991A35.331,35.331,0,0,0,.5,3.66V6.442a82.1,82.1,0,0,1,9.03-2.3A31.017,31.017,0,0,0,.5,13.7V38.1c10.2,1.183,18.124,10.3,18.124,20.881a46.013,46.013,0,0,1-.475,5.084h85.71c-.222-2.4-.475-3.39-.475-4.829,0-10.744,8.112-20.178,18.5-21.169V21.5ZM73.694,3.4c9.411-.384,23.574,10.009,29.183,14.454,1.521,1.215,2.44,1.983,2.44,1.983l-2.44.032L51.2,20.32,50.944,3.4h22.75Zm-56.274.48,29.943-.256L47.11,20.544,1.862,20.8S6.647,4.619,17.42,3.884Zm82.162,58.23H22.237a1.156,1.156,0,0,1-1.172-1.183,1.182,1.182,0,0,1,1.172-1.215H99.582a1.2,1.2,0,0,1,1.172,1.183A1.182,1.182,0,0,1,99.582,62.114Z" transform="translate(-0.5 -0.445)"/>
    <path id="Path_82" data-name="Path 82" class="cls-1" d="M211.146,36.483a17.673,17.673,0,0,1,0-34.983" transform="translate(-89.755 39.045)"/>
    <path id="Path_83" data-name="Path 83" class="cls-1" d="M234.373,49.127a6.817,6.817,0,0,1,0-12.727" transform="translate(-112.981 15.305)"/>
    <path id="Path_84" data-name="Path 84" class="cls-1" d="M-139.3,1.4a17.6,17.6,0,0,1,15.494,17.523A17.551,17.551,0,0,1-139.3,36.479" transform="translate(139.303 39.113)"/>
    <path id="Path_85" data-name="Path 85" class="cls-1" d="M-134.579,42.559a6.818,6.818,0,0,1-4.721,6.491V36.1a6.677,6.677,0,0,1,2.757,1.695A6.777,6.777,0,0,1-134.579,42.559Z" transform="translate(139.303 15.509)"/>
    <path id="Path_86" data-name="Path 86" class="cls-1" d="M4.546,63.944S4.895,75.1,8.38,78.621c.76.767,7.795,3.741,10.773,8.57A35.23,35.23,0,0,1,24.1,101.613a.873.873,0,0,0,.887.8l24.937-.128L49.889,63.4l-45.216.32C4.546,63.752,4.483,63.848,4.546,63.944Z" transform="translate(-3.247 -43.269)"/>
    <path id="Path_87" data-name="Path 87" class="cls-1" d="M215,61.837a23.79,23.79,0,0,1,2.662,8.346c.285,2.878.982,10.457-2,15.285a40.324,40.324,0,0,0-5.482,15.061.873.873,0,0,1-.887.8l-48.7-.128V62.317l54.278-.544C214.941,61.741,214.973,61.773,215,61.837Z" transform="translate(-109.871 -42.154)"/>
    <path id="Path_88" data-name="Path 88" class="cls-1" d="M288.233,49.838c1.9.576,8.809.1,8.809.1s-3.866-3.134-5.07-3.134S287.092,49.518,288.233,49.838Z" transform="translate(-196.914 -31.977)"/>
    <path id="Path_89" data-name="Path 89" class="cls-2" d="M178.23,89.518h-7.668a1.379,1.379,0,0,1-1.362-1.375h0a1.352,1.352,0,0,1,1.362-1.343h7.668a1.372,1.372,0,0,1,1.362,1.343h0A1.423,1.423,0,0,1,178.23,89.518Z" transform="translate(-115.746 -59.186)"/>
    <path id="Path_90" data-name="Path 90" class="cls-2" d="M22.667,89.518H15.031A1.352,1.352,0,0,1,13.7,88.143h0A1.345,1.345,0,0,1,15.031,86.8h7.636A1.345,1.345,0,0,1,24,88.143h0A1.332,1.332,0,0,1,22.667,89.518Z" transform="translate(-9.517 -59.186)"/>
    <path id="Path_91" data-name="Path 91" class="cls-1" d="M383.6,127.2v35.015" transform="translate(-262.211 -86.667)"/>
    <line id="Line_47" data-name="Line 47" class="cls-3" y1="72.364" transform="translate(0 3.215)"/>
    <line id="Line_48" data-name="Line 48" class="cls-3" y1="54.489" transform="translate(121.389 21.059)"/>
  </g>
</svg>
