<svg xmlns="http://www.w3.org/2000/svg" viewBox="2699.313 -1887.129 122.391 84.691">
  <defs>
    <style>
      .cls-1 {
        fill: #f1f1f1;
      }

      .cls-1, .cls-2 {
        stroke: #9b9b9b;
        stroke-miterlimit: 10;
      }

      .cls-2 {
        fill: #fff;
      }
    </style>
  </defs>
  <g id="передняя_часть" data-name="передняя часть" transform="translate(2699.813 -1886.628)">
    <path id="Path_76" data-name="Path 76" class="cls-1" d="M4022,2677.555c0,.269.441.489.986.489h15.332c.544,0,.986-.217.986-.489v-15.267c0-.269-.442-.489-.986-.489h-15.332c-.544,0-.986.218-.986.489Z" transform="translate(-3919.945 -2594.353)"/>
    <path id="Path_77" data-name="Path 77" class="cls-1" d="M98.369,2677.555c0,.272-.315.489-.856.489H82.28c-.541,0-.98-.217-.98-.489v-15.267c0-.269.434-.489.777-.489H97.31c.744,0,1.059.21,1.059.489Z" transform="translate(-79.312 -2594.353)"/>
    <path id="Path_79" data-name="Path 79" class="cls-1" d="M14.986,698.762a1.018,1.018,0,0,1-1.018,1.017H4.018A1.019,1.019,0,0,1,3,698.762v-4.645A1.018,1.018,0,0,1,4.018,693.1h9.949a1.019,1.019,0,0,1,1.018,1.017Z" transform="translate(-3 -675.594)"/>
    <path id="Path_80" data-name="Path 80" class="cls-1" d="M4311.4,698.762a1.019,1.019,0,0,0,1.019,1.017h9.949a1.018,1.018,0,0,0,1.019-1.017v-4.645a1.02,1.02,0,0,0-1.019-1.017h-9.949a1.019,1.019,0,0,0-1.019,1.017Z" transform="translate(-4201.995 -675.594)"/>
    <path id="Path_81" data-name="Path 81" class="cls-1" d="M172.689,29.993c-1.28-.256-3.253-.568-5.459-.888-.9-2.245-6.077-15.076-7.313-17.184-1.922-3.275-5.652-5.406-10.856-6.659S120.027,3,120.027,3,96.19,4.007,90.99,5.263s-8.933,3.384-10.856,6.659C78.9,14.027,73.722,26.86,72.821,29.105c-2.207.32-4.18.632-5.46.888-4.522.9-6.562,6.1-6.562,8.133V70.135c.114.114.32.335.548.563l.368-.208,16.122,0c.081,0,.548.2.548.421,0,1.428.015,6.04.015,7.083h13.6a1.018,1.018,0,0,0,1.018-1.017V74.828H147.03v2.146a1.018,1.018,0,0,0,1.018,1.017H161.4c-.008-1.078,0-6.266,0-7.138,0-.277.655-.4.681-.408l16.033.043.338.124.241.188c.119-.1.411-.358.559-.485V38.121C179.248,36.092,177.212,30.9,172.689,29.993ZM70.658,49.344c-8.654,0-6.821-5.743-6.821-5.743.681-2.156,16.391-3.5,16.391-3.5s.241.165.637.444l6.518,7.585C84.334,49.057,79.22,49.344,70.658,49.344Zm49.369-26c-18.5-.55-44.506,3.841-44.506,3.841s4.187-11.007,5.518-13.721c1.7-3.46,5.327-4.295,6.5-4.774,9.347-3.825,32.493-3.275,32.493-3.275s23.143-.548,32.49,3.275c1.168.479,4.8,1.314,6.5,4.774,1.331,2.714,5.518,13.721,5.518,13.721S138.523,22.792,120.027,23.342Zm49.367,26c-8.563,0-13.674-.287-16.724-1.218l6.518-7.585c.4-.282.637-.444.637-.444s15.713,1.347,16.391,3.5C176.214,43.6,178.047,49.344,169.393,49.344Z" transform="translate(-59.332 -3)"/>
    <path id="Path_78" data-name="Path 78" class="cls-2" d="M1728.518,2179.524c-.561.084-1.019-.219-1.019-.589v-10.464c0-.37.455-.673,1.019-.673h31.769c.561,0,1.018.3,1.018.673v10.464c0,.373-.454.673-1.018.589Z" transform="translate(-1683.71 -2112.885)"/>
  </g>
</svg>
