<svg xmlns="http://www.w3.org/2000/svg" viewBox="2900.153 -1887.618 97.318 85.642">
  <defs>
    <style>
      .cls-1 {
        fill: #f1f1f1;
      }

      .cls-1, .cls-2 {
        stroke: #95989a;
      }

      .cls-2 {
        fill: none;
      }
    </style>
  </defs>
  <g id="левое_переднее_крыло" data-name="левое переднее крыло" transform="translate(2900.719 -1887.074)">
    <path id="Path_57_2_" class="cls-1" d="M1.368,39.713C2.6,35.1,4.2,33.694,9.011,32.256l1.077-.287L61.315,22.2S90.325,2.217,95.783.744C96,.708,96.321.636,96.752.6V5.451c-12.459,4.779-26.21,16.493-26.21,16.493l26.21.216V66.751H77.041a1.349,1.349,0,0,0-1.328,1.329,1.333,1.333,0,0,0,1.328,1.365H96.752v2.192H72.194c.251-2.695.539-3.809.539-5.426,0-12.756-10.3-23.895-23.05-23.895s-23.05,10.852-23.05,23.607a51.288,51.288,0,0,0,.539,5.713H7.157C-2.25,71.638.929,41.355,1.368,39.713ZM4.021,47.2h7.037l.287-13.582S1.041,34.448,4.021,47.2Z" transform="translate(-0.5 -0.6)"/>
    <path id="Path_58_2_" class="cls-1" d="M-41.981,39.569A19.82,19.82,0,0,0-22.162,19.735,19.82,19.82,0,0,0-41.981-.1,19.82,19.82,0,0,0-61.8,19.735,19.744,19.744,0,0,0-42.125,39.569h.144" transform="translate(90.586 45.029)"/>
    <path id="Path_61_2_" class="cls-1" d="M-20.188,34a7.619,7.619,0,0,1,7.612,7.618,7.619,7.619,0,0,1-7.612,7.618A7.619,7.619,0,0,1-27.8,41.618h0A7.642,7.642,0,0,1-20.188,34Z" transform="translate(68.793 23.182)"/>
    <path id="Path_98" data-name="Path 98" class="cls-1" d="M3.078,87.3A45.063,45.063,0,0,1,9.29,104.225a.986.986,0,0,0,1.005.9l20.106-.072V60.926L3.976,60.675c-.072-.036-.108,0-.144.072A26.584,26.584,0,0,0,.816,70.125C.493,73.359-.3,81.875,3.078,87.3Z" transform="translate(65.851 -39.08)"/>
    <path id="Path_99" data-name="Path 99" class="cls-1" d="M40.2,49.114c-2.154.647-9.981.108-9.981.108S34.6,45.7,35.961,45.7,41.49,48.754,40.2,49.114Z" transform="translate(45.14 -29.495)"/>
    <line id="Line_50" data-name="Line 50" class="cls-2" y1="71.038" transform="translate(96.252 0)"/>
  </g>
</svg>
