<svg xmlns="http://www.w3.org/2000/svg" viewBox="2889.191 -1704.549 123.022 100.89">
  <defs>
    <style>
      .cls-1 {
        fill: #f1f1f1;
      }

      .cls-1, .cls-2, .cls-3, .cls-4 {
        stroke: #9b9b9b;
        stroke-miterlimit: 10;
      }

      .cls-2, .cls-6 {
        fill: #fff;
      }

      .cls-3, .cls-5, .cls-8 {
        fill: none;
      }

      .cls-4 {
        fill: #b6b6b6;
      }

      .cls-5, .cls-6 {
        stroke: #95989a;
      }

      .cls-7 {
        stroke: none;
      }
    </style>
  </defs>
  <g id="открытый_багажник" data-name="открытый багажник" transform="translate(2889.987 -1704.048)">
    <g id="багажник">
      <g id="Group_266" data-name="Group 266" transform="translate(2.827 83.266)">
        <path id="Path_101" data-name="Path 101" class="cls-1" d="M1871.4,1277.969c0,.276.444.494.995.494h15.483c.55,0,.995-.223.995-.494v-15.476c0-.276-.444-.494-.995-.494H1872.4c-.551,0-.995.223-.995.494Z" transform="translate(-1774.059 -1261.84)"/>
        <path id="Path_102" data-name="Path 102" class="cls-1" d="M49.04,1274.97c0,.276-.317.493-.868.493H32.79c-.545,0-.99-.223-.99-.493v-15.476c0-.276.439-.494.783-.494H47.966c.751,0,1.069.212,1.069.494v15.476Z" transform="translate(-31.8 -1259)"/>
      </g>
      <path id="Path_103" data-name="Path 103" class="cls-1" d="M62,73.5H92.062a4.578,4.578,0,0,1,2.54.982,4.862,4.862,0,0,1,.683,2.452c.011.807-1.064,3.137-.783,3.137h18.176a5,5,0,0,0,2.635-1.667c1.381-1.682,1.831-6.385,3.127-8.136.164-.223.73-.451.878-.685.878-1.353,1.376-4.665,1.561-6.273a76.406,76.406,0,0,0-.1-12.154c-.127-1.337-.37-4.092-.979-5.291-.582-1.141-2.847-2.632-3.519-3.726-1.54-2.494-2.487-8.524-4.027-11.013a7.223,7.223,0,0,0-1.238-1.306c-.238-.2-.9-.382-1.042-.653-2.572-4.9-4.736-8.449-6.678-12.212-1.122-2.171-7.53-9.076-9.281-10.036C87.125,3.138,62.064,3,62.064,3h-.122s-25.055.138-31.961,3.917c-1.757.955-8.165,7.86-9.287,10.036-1.942,3.763-4.106,7.314-6.678,12.212-.143.271-.8.456-1.042.653a7.4,7.4,0,0,0-1.238,1.306C10.192,33.618,9.25,39.648,7.71,42.137c-.672,1.088-2.937,2.579-3.519,3.726-.609,1.2-.847,3.954-.979,5.292a75.788,75.788,0,0,0-.1,12.154c.19,1.6.683,4.92,1.561,6.273.153.234.714.462.878.685C6.853,72.018,7.3,76.72,8.684,78.4a5.022,5.022,0,0,0,2.635,1.667H29.5c.28,0-.794-2.33-.783-3.137a4.97,4.97,0,0,1,.683-2.452,4.594,4.594,0,0,1,2.54-.982H62" transform="translate(-1.613 13.605)"/>
      <g id="Group_267" data-name="Group 267" transform="translate(9.711 46.953)">
        <path id="Path_104" data-name="Path 104" class="cls-2" d="M135.005,588.078c-6.282.05-13.092-.015-17.021.01-1.159.01,1.713-13.288,3.869-13.288h7.35c.076,0,2.05,4.608,2.05,4.608Z" transform="translate(-117.718 -574.8)"/>
        <line id="Line_51" data-name="Line 51" class="cls-2" x2="11.808" transform="translate(1.646 4.613)"/>
      </g>
      <g id="Group_268" data-name="Group 268" transform="translate(92.882 47.004)">
        <path id="Path_105" data-name="Path 105" class="cls-2" d="M1768.8,589.078c6.281.05,13.092-.015,17.021.01,1.158.01-1.713-13.288-3.869-13.288H1774.6c-.076,0-2.05,4.608-2.05,4.608Z" transform="translate(-1768.801 -575.8)"/>
        <line id="Line_52" data-name="Line 52" class="cls-2" x1="11.803" transform="translate(3.833 4.613)"/>
      </g>
      <path id="Path_106" data-name="Path 106" class="cls-2" d="M361.982,49.207c.931.032,38.57,1.359,41.787,2.022,2.032.419-7.651-12.939-9.742-14.208-1.716-1.041-22.674-4.421-32.051-4.421-8.63,0-28.976,2.558-32.04,4.421-1.9,1.159-10.028,12.321-10.007,14.063,0,.109.082.182.265.145,3.238-.669,41.242-2,41.8-2.022h-.011" transform="translate(-301.588 -14.424)"/>
      <g id="Group_269" data-name="Group 269" transform="translate(29.867 88.441)">
        <ellipse id="Ellipse_33" data-name="Ellipse 33" class="cls-3" cx="2.381" cy="2.388" rx="2.381" ry="2.388" transform="translate(0 0.159)"/>
        <ellipse id="Ellipse_34" data-name="Ellipse 34" class="cls-3" cx="2.381" cy="2.388" rx="2.381" ry="2.388" transform="translate(6.032 0.212)"/>
        <ellipse id="Ellipse_35" data-name="Ellipse 35" class="cls-3" cx="2.381" cy="2.388" rx="2.381" ry="2.388" transform="translate(50.64)"/>
        <ellipse id="Ellipse_36" data-name="Ellipse 36" class="cls-3" cx="2.381" cy="2.388" rx="2.381" ry="2.388" transform="translate(56.672 0.053)"/>
      </g>
      <g id="Group_270" data-name="Group 270" transform="translate(2.981 30.028)">
        <path id="Path_109" data-name="Path 109" class="cls-1" d="M46.029,261.271a.965.965,0,0,1-.963.966h-9.4a.965.965,0,0,1-.963-.966v-4.405a.965.965,0,0,1,.963-.966h9.4a.965.965,0,0,1,.963.966Z" transform="translate(-34.7 -255.9)"/>
        <path id="Path_110" data-name="Path 110" class="cls-1" d="M1988.6,261.271a.965.965,0,0,0,.963.966h9.4a.965.965,0,0,0,.963-.966v-4.405a.964.964,0,0,0-.963-.966h-9.4a.965.965,0,0,0-.963.966Z" transform="translate(-1885.21 -255.9)"/>
      </g>
      <path id="Path_111" data-name="Path 111" class="cls-4" d="M292.066,347.432l-1.566,2.93,9.366,22.6.99,1.247,1.714.817h62.593l1.736-.828,1-1.263,9.488-22.87-1.138-2.617-42.12-1.948Z" transform="translate(-274.033 -309.457)"/>
      <path id="Path_107" data-name="Path 107" class="cls-1" d="M286.408,348.066l-4.908,2.316,4.359,5.271,10.91,26.326,1.315,1.657,2.277,1.086h83.15l2.306-1.1,1.329-1.678,10.987-26.485,4.758-5.471-4.653-1.9L342.284,345.5Z" transform="translate(-281.5 -345.5)"/>
      <line id="Line_53" data-name="Line 53" class="cls-5" x2="112.468" transform="translate(4.195 10.085)"/>
    </g>
    <g id="Rectangle_128" data-name="Rectangle 128" class="cls-6" transform="translate(5.48 85.636)">
      <rect class="cls-7" width="16.422" height="4.118" rx="2"/>
      <rect class="cls-8" x="0.5" y="0.5" width="15.422" height="3.118" rx="1.5"/>
    </g>
    <g id="Rectangle_129" data-name="Rectangle 129" class="cls-6" transform="translate(98.537 85.636)">
      <rect class="cls-7" width="16.422" height="4.118" rx="2"/>
      <rect class="cls-8" x="0.5" y="0.5" width="15.422" height="3.118" rx="1.5"/>
    </g>
  </g>
</svg>
