<svg xmlns="http://www.w3.org/2000/svg" viewBox="3288.72 -1888.134 75.538 86.844">
  <defs>
    <style>
      .cls-1 {
        fill: #f1f1f1;
      }

      .cls-1, .cls-2, .cls-4 {
        stroke: #95989a;
      }

      .cls-2 {
        fill: none;
      }

      .cls-3, .cls-4 {
        fill: #fff;
      }
    </style>
  </defs>
  <g id="левое_зааднее_крыло" data-name="левое зааднее крыло" transform="translate(3289.22 -1887.668)">
    <path id="Path_57_1_" class="cls-1" d="M.5.5C11.722,4.87,29.686,13.188,39.721,20.931H55.348c9.575,0,17.082,5.213,17.082,14.489v1.457a18.862,18.862,0,0,1-3.754,11,13.177,13.177,0,0,1,6.358,11.308,24.173,24.173,0,0,1-.881,5.213H61.4a2.6,2.6,0,0,0-2.566,2.607c0,1.457,1.149,2.607,2.03,2.338h8.924c-.038,0-.268.038-.306.038-1.953.23-4.443,2.568-7.2,2.568H24.668c.268-2.875.575-4.063.575-5.788,0-13.608-10.993-25.491-24.59-25.491H.5M33.095,20.356,2.109,20.049A35.873,35.873,0,0,0,.5,16.178V3.643C9.846,6.671,22.447,11.923,33.095,20.356ZM62.625,32.2h7.507c3.179,13.608-7.813,14.489-7.813,14.489Z" transform="translate(-0.497 -0.5)"/>
    <path id="Path_92" data-name="Path 92" class="cls-1" d="M.4,30.718A21.12,21.12,0,0,0,21.427,9.559,21.144,21.144,0,0,0,.4-11.6" transform="translate(-0.4 55.16)"/>
    <path id="Path_93" data-name="Path 93" class="cls-1" d="M34.4,22.5V38.753a8.127,8.127,0,0,0,0-16.253Z" transform="translate(-34.4 34.131)"/>
    <path id="Path_94" data-name="Path 94" class="cls-1" d="M7.2,167.4a20.677,20.677,0,0,1-2.068,3.22A6,6,0,0,1,2.8,172.23" transform="translate(66.452 -103.424)"/>
    <path id="Path_95" data-name="Path 95" class="cls-1" d="M195.1,156.518V143.524m0-16.253V114.2" transform="translate(-195.097 -70.617)"/>
    <line id="Line_49" data-name="Line 49" class="cls-2" y1="71.412" transform="translate(0.003 0)"/>
    <path id="Path_96" data-name="Path 96" class="cls-3" d="M10.736,24.7H4.462L4.195,37.792a8.785,8.785,0,0,0,6.14-4.408C12.233,29.589,10.736,24.7,10.736,24.7Z" transform="translate(58.309 7.63)"/>
    <path id="Path_97" data-name="Path 97" class="cls-3" d="M14.963,0H3.741L.267,1.468,0,29.768A127.858,127.858,0,0,0,8.817,15.351,122.976,122.976,0,0,0,14.963,0Z" transform="translate(0.698 19.104) rotate(-90)"/>
    <path id="Path_112" data-name="Path 112" class="cls-4" d="M45.945,24.21v-3.24h7.5v3.24Z" transform="translate(16.16 6.527)"/>
  </g>
</svg>
