<svg xmlns="http://www.w3.org/2000/svg" viewBox="-4344 -6349.5 296 107.5"><defs><style>.cls-1,.cls-2{fill:#efbc94}.cls-1{stroke:rgba(0,0,0,0)}.cls-2{font-size:33px;font-family:SegoeUI,Segoe UI}</style></defs><g id="logo" transform="translate(-4470 -6455)"><g id="Group_28" data-name="Group 28" transform="translate(224.575 106.259)"><path id="Path_3" data-name="Path 3" class="cls-1" d="M50.321 46.6V-14H33.683Q1.836-14 1.836 15.538q0 14.032 8.844 22.548T34.355 46.6zM43.262-7.58v47.758h-8.991q-11.848 0-18.444-6.382t-6.6-18.089Q9.231-7.58 33.851-7.58z" transform="translate(-3.411 13.745)"/><path id="Path_4" data-name="Path 4" class="cls-1" d="M1.836 46.6V-14h16.638q31.847 0 31.847 29.542 0 14.032-8.844 22.548T17.8 46.6zM8.894-7.58v47.758h8.991q11.848 0 18.444-6.382t6.6-18.089q0-23.287-24.621-23.287z" transform="translate(48.104 13.745)"/></g><text id="Daria_Doroshenkova" data-name="Daria Doroshenkova" class="cls-2" transform="translate(126 205)"><tspan x="0" y="0">Daria Doroshenkova</tspan></text></g></svg>